<svg xmlns="http://www.w3.org/2000/svg" viewBox="0 0 17.88 56.15">
<defs>
    <style>
        .cls-1{opacity:0.25;}.cls-2{fill:#58595b;}
    </style>
</defs><title>Ресурс 16</title>
<g class="cls-1"><circle class="cls-2" cx="1.99" cy="1.99" r="1.99"/><circle class="cls-2" cx="8.94" cy="1.99" r="1.99"/><circle class="cls-2" cx="15.89" cy="1.99" r="1.99"/><circle class="cls-2" cx="1.99" cy="8.51" r="1.99"/><circle class="cls-2" cx="8.94" cy="8.51" r="1.99"/><circle class="cls-2" cx="15.89" cy="8.51" r="1.99"/><circle class="cls-2" cx="1.99" cy="15.03" r="1.99"/><circle class="cls-2" cx="8.94" cy="15.03" r="1.99"/><circle class="cls-2" cx="15.89" cy="15.03" r="1.99"/><circle class="cls-2" cx="1.99" cy="21.55" r="1.99"/><circle class="cls-2" cx="8.94" cy="21.55" r="1.99"/><circle class="cls-2" cx="15.89" cy="21.55" r="1.99"/><circle class="cls-2" cx="1.99" cy="28.08" r="1.99"/><circle class="cls-2" cx="8.94" cy="28.08" r="1.99"/><circle class="cls-2" cx="15.89" cy="28.08" r="1.99"/><circle class="cls-2" cx="1.99" cy="34.6" r="1.99"/><circle class="cls-2" cx="8.94" cy="34.6" r="1.99"/><circle class="cls-2" cx="15.89" cy="34.6" r="1.99"/><circle class="cls-2" cx="1.99" cy="41.12" r="1.99"/><circle class="cls-2" cx="8.94" cy="41.12" r="1.99"/><circle class="cls-2" cx="15.89" cy="41.12" r="1.99"/><circle class="cls-2" cx="1.99" cy="47.64" r="1.99"/><circle class="cls-2" cx="8.94" cy="47.64" r="1.99"/><circle class="cls-2" cx="15.89" cy="47.64" r="1.99"/><circle class="cls-2" cx="1.99" cy="54.16" r="1.99"/><circle class="cls-2" cx="8.94" cy="54.16" r="1.99"/><circle class="cls-2" cx="15.89" cy="54.16" r="1.99"/>
</g>
</svg>