<?xml version="1.0" standalone="no"?>
<!DOCTYPE svg PUBLIC "-//W3C//DTD SVG 1.1//EN" "http://www.w3.org/Graphics/SVG/1.1/DTD/svg11.dtd" >
<svg xmlns="http://www.w3.org/2000/svg">
<metadata>
<json>
<![CDATA[
{
	"fontFamily": "acropliaFont",
	"majorVersion": 1,
	"minorVersion": 0,
	"version": "Version 1.0",
	"fontId": "acropliaFont",
	"psName": "acropliaFont",
	"subFamily": "Regular",
	"fullName": "acropliaFont",
	"description": "Font generated by IcoMoon."
}
]]>
</json>
</metadata>
<defs>
<font id="acropliaFont" horiz-adv-x="1024">
<font-face units-per-em="1024" ascent="1000.96" descent="-23.04" />
<missing-glyph horiz-adv-x="1024" />
<glyph unicode="&#x20;" horiz-adv-x="512" d="" />
<glyph unicode="&#xe900;" glyph-name="burger-menu" data-tags="burger-menu" d="M0 965.053h1047.714v-198.333h-1047.714v198.333zM0 206.754h1047.714v-198.333h-1047.714v198.333zM0 585.634h1047.714v-198.333h-1047.714v198.333z" />
<glyph unicode="&#xe901;" glyph-name="by-author" data-tags="by-author" d="M490.545 416.61q22.918 0 41.935 45.836c10.929 22.504 17.959 48.777 19.482 76.517l0.023 0.527v122.392c0.009 0.681 0.015 1.484 0.015 2.289 0 50.011-20.74 95.177-54.088 127.367l-0.052 0.050c-32.241 33.404-77.41 54.147-127.424 54.147-0.974 0-1.946-0.008-2.917-0.024l0.146 0.002c-0.681 0.009-1.484 0.015-2.289 0.015-50.011 0-95.177-20.74-127.367-54.088l-0.050-0.052c-33.4-32.24-54.141-77.407-54.141-127.417 0-0.805 0.005-1.609 0.016-2.411l-0.001 0.122v-122.88c1.546-28.267 8.576-54.539 20.039-78.27l-0.534 1.226q19.505-45.836 41.935-45.836v-61.44l-245.272-157.013v-87.771h735.33v87.771l-243.81 157.501zM807.985 674.56l-100.45-100.45-24.869-99.474 99.962 24.869 190.659 190.659-75.093 74.606-90.21-90.21zM1010.834 769.158l-16.579 16.579-19.017 16.579c-5.376 5.344-12.786 8.647-20.968 8.647s-15.591-3.303-20.969-8.649l-22.917-22.917 75.093-75.093 22.918 22.918c6.11 5.471 9.937 13.384 9.937 22.19 0 7.592-2.844 14.519-7.525 19.775l0.026-0.030z" />
<glyph unicode="&#xe902;" glyph-name="check-circl" data-tags="cheak_1" d="M438.139 418.701l-99.486 102.5-60.294-60.294 159.278-162.292 307.501 301.974-59.792 60.797-247.207-242.685zM512 992c-282.77 0-512-229.23-512-512s229.23-512 512-512c282.77 0 512 229.23 512 512v0c-0.286 282.654-229.345 511.714-511.972 512h-0.028zM512 18.245c-255.020 0-461.755 206.735-461.755 461.755s206.735 461.755 461.755 461.755c255.020 0 461.755-206.735 461.755-461.755v0c-0.286-254.905-206.849-461.469-461.727-461.755h-0.028z" />
<glyph unicode="&#xe903;" glyph-name="copy" data-tags="copy" horiz-adv-x="996" d="M220.521 828.983v-860.983h774.99v860.983zM882.086 81.426h-548.138v633.076h548.138zM113.426 878.574h548.138v-49.591h113.426v163.017h-774.99v-860.983h220.521v113.426h-107.095v634.131z" />
<glyph unicode="&#xe904;" glyph-name="course-map" data-tags="course-map" d="M958.638 406.538l-271.502-293.29-108.936 124.020-65.92-72.624 174.298-196.644 337.981 365.355-65.92 73.183zM0 114.366h439.097v-146.366h-439.097v146.366zM0 406.538h439.097v-146.366h-439.097v146.366zM0 699.269h1024v-146.366h-1024v146.366zM0 992h1024v-146.366h-1024v146.366z" />
<glyph unicode="&#xe905;" glyph-name="cross" data-tags="cross" d="M896 193.28l-90.453-88.32-293.547 286.72-293.547-286.72-90.453 88.32 293.547 286.72-293.547 286.72 90.453 88.32 293.547-286.72 293.547 286.72 90.453-88.32-293.547-286.72 293.547-286.72z" />
<glyph unicode="&#xe906;" glyph-name="cross-circl" data-tags="cross-circl" d="M510.723-32c-282.065 0-510.723 228.659-510.723 510.723s228.659 510.723 510.723 510.723c282.065 0 510.723-228.659 510.723-510.723v0c0-282.065-228.659-510.723-510.723-510.723v0zM510.723 940.928c-253.858 0-459.651-205.793-459.651-459.651s205.793-459.651 459.651-459.651c253.858 0 459.651 205.793 459.651 459.651v0c0 253.858-205.793 459.651-459.651 459.651v0zM713.991 325.506l-47.497-47.497-154.238 154.238-154.749-154.238-47.497 47.497 154.238 154.238-154.238 154.749 47.497 47.497 154.749-154.238 154.238 154.238 47.497-47.497-154.238-154.749 154.238-154.238z" />
<glyph unicode="&#xe907;" glyph-name="delete" data-tags="delete" d="M176.518 99.657c-0.003-0.291-0.004-0.635-0.004-0.979 0-60.791 49.005-110.136 109.666-110.685h438.909c60.713 0.55 109.719 49.895 109.719 110.685 0 0.344-0.002 0.688-0.005 1.032v-0.053 669.501h-658.286zM834.804 936.411h-137.021l-55.101 55.589h-274.042l-55.101-55.589h-137.021c-30.225-0.271-54.622-24.836-54.622-55.099 0-0.344 0.003-0.687 0.009-1.029l-0.001 0.051v-55.589h767.512v55.589c0.006 0.291 0.009 0.634 0.009 0.977 0 30.263-24.397 54.828-54.596 55.099h-0.026z" />
<glyph unicode="&#xe908;" glyph-name="dislike" data-tags="dislike" d="M1011.81 943.238h-182.857v-569.051h183.832zM0 421.486c-0.007-0.438-0.012-0.956-0.012-1.474 0-51.196 41.093-92.795 92.095-93.611l0.077-0.001h289.646l-45.836-217.966v-14.141c1.314-19.697 8.060-37.593 18.737-52.48l-0.208 0.304 48.762-48.762 305.25 315.977c17.171 14.84 27.971 36.649 27.971 60.98 0 1.877-0.064 3.74-0.191 5.585l0.014-0.249v472.503c0.007 0.438 0.012 0.956 0.012 1.474 0 51.196-41.093 92.795-92.095 93.611l-0.077 0.001h-413.989c-37.83-0.153-70.182-23.443-83.652-56.446l-0.219-0.606-137.021-336.457c-2.912-8.135-4.595-17.519-4.595-27.297 0-2.062 0.075-4.107 0.222-6.132l-0.016 0.271v-95.086z" />
<glyph unicode="&#xe909;" glyph-name="dots" data-tags="dots" d="M619.789 884.211c0-59.53-48.259-107.789-107.789-107.789s-107.789 48.259-107.789 107.789c0 59.53 48.259 107.789 107.789 107.789s107.789-48.259 107.789-107.789zM619.789 487.545c0-59.53-48.259-107.789-107.789-107.789s-107.789 48.259-107.789 107.789c0 59.53 48.259 107.789 107.789 107.789s107.789-48.259 107.789-107.789zM619.789 90.88c0-59.53-48.259-107.789-107.789-107.789s-107.789 48.259-107.789 107.789c0 59.53 48.259 107.789 107.789 107.789s107.789-48.259 107.789-107.789z" />
<glyph unicode="&#xe90a;" glyph-name="edit" data-tags="edit" d="M862.801 636.338l121.283 121.283c24.817 24.819 40.167 59.104 40.167 96.976s-15.35 72.157-40.167 96.976v0c-24.819 24.817-59.104 40.167-96.976 40.167s-72.157-15.35-96.976-40.167l-121.283-121.283zM618.699 780.138l-542.449-541.937-76.25-270.201 270.201 76.25 542.449 541.937-193.951 193.951z" />
<glyph unicode="&#xe90b;" glyph-name="eye" data-tags="eye" d="M170.667 470.187c68.302 126.706 200.052 211.361 351.573 211.361s283.271-84.655 350.531-209.249l1.043-2.112h117.76c-76.362 188.078-257.642 318.287-469.333 318.287s-392.972-130.21-468.118-314.908l-1.216-3.379zM872.533 470.187c-68.494-126.039-199.89-210.161-350.933-210.161s-282.439 84.122-349.892 208.071l-1.041 2.090h-119.040c76.362-188.078 257.642-318.287 469.333-318.287s392.972 130.21 468.118 314.908l1.216 3.379zM657.067 470.187c0-75.17-60.937-136.107-136.107-136.107s-136.107 60.937-136.107 136.107c0 75.17 60.937 136.107 136.107 136.107s136.107-60.937 136.107-136.107z" />
<glyph unicode="&#xe90c;" glyph-name="facebook" data-tags="facebook" horiz-adv-x="1034" d="M517.111 992c-0.557 0.002-1.216 0.003-1.875 0.003-283.097 0-512.869-228.311-515.234-510.85l-0.001-0.225c0-285.592 231.518-517.111 517.111-517.111s517.111 231.518 517.111 517.111v0c-2.366 282.763-232.138 511.074-515.235 511.074-0.659 0-1.318-0.001-1.977-0.004h0.101zM645.808 461.88h-84.094v-296.886h-124.98v296.886h-59.005v105.002h59.005v67.833c-0.236 2.776-0.37 6.007-0.37 9.27 0 64.149 52.003 116.152 116.152 116.152 3.565 0 7.093-0.161 10.576-0.475l-0.449 0.033h92.922v-102.679h-67.368c-0.502 0.036-1.088 0.056-1.679 0.056-13.856 0-25.089-11.233-25.089-25.089 0-1.332 0.104-2.639 0.304-3.915l-0.018 0.142v-61.328h92.922z" />
<glyph unicode="&#xe90d;" glyph-name="favorites-bookmarks" data-tags="favorites-bookmarks" d="M894.976-22.784l-383.488 325.12-383.488-325.12v1014.784h766.976v-1014.784z" />
<glyph unicode="&#xe90e;" glyph-name="file-video" data-tags="file video" d="M842.667 701.867l-180.48 178.347c-20.323 19.297-46.497 32.613-75.594 37.023l-0.779 0.097v-290.987h294.4c-4.636 29.641-18.1 55.536-37.577 75.551l0.030-0.031zM567.467 553.387c-0.353-0.008-0.769-0.013-1.186-0.013-14.872 0-28.334 6.039-38.067 15.799l-0.001 0.001c-10.003 9.572-16.221 23.030-16.221 37.94 0 0.312 0.003 0.623 0.008 0.934l-0.001-0.047v311.040h-314.453c-0.353 0.008-0.769 0.013-1.186 0.013-14.872 0-28.334-6.039-38.067-15.799l-0.001-0.001c-10.008-9.573-16.23-23.034-16.23-37.948 0-0.459 0.006-0.917 0.018-1.373l-0.001 0.067v-768c-0.005-0.264-0.007-0.575-0.007-0.887 0-14.91 6.218-28.367 16.202-37.921l0.019-0.018c9.734-9.761 23.196-15.8 38.068-15.8 0.417 0 0.833 0.005 1.247 0.014l-0.062-0.001h628.907c0.353-0.008 0.769-0.013 1.186-0.013 14.872 0 28.334 6.039 38.067 15.799l0.001 0.001c10.004 9.639 16.218 23.154 16.218 38.119 0 0.249-0.002 0.497-0.005 0.745v-0.038 457.387zM707.84 188.587c0.023-0.294 0.035-0.637 0.035-0.982 0-5.709-3.504-10.599-8.478-12.638l-0.091-0.033h-5.547c-0.080-0.002-0.175-0.003-0.27-0.003-3.787 0-7.189 1.644-9.533 4.258l-0.011 0.012-86.613 90.88v-37.973c0.008-0.385 0.013-0.838 0.013-1.293 0-17.591-7.003-33.545-18.374-45.228l0.014 0.015c-10.65-11.578-25.775-18.897-42.612-19.199l-0.054-0.001h-157.44c-16.892 0.303-32.017 7.622-42.628 19.158l-0.038 0.042c-11.356 11.668-18.36 27.623-18.36 45.214 0 0.455 0.005 0.908 0.014 1.361l-0.001-0.068v162.56c-0.008 0.385-0.013 0.838-0.013 1.293 0 17.591 7.003 33.545 18.374 45.228l-0.014-0.015c10.65 11.578 25.775 18.897 42.612 19.199l0.054 0.001h154.027c16.892-0.303 32.017-7.622 42.628-19.158l0.038-0.042c12.912-11.504 21.175-27.986 21.757-46.405l0.003-0.101v-37.547l85.333 90.453c2.354 2.625 5.757 4.27 9.543 4.27 0.095 0 0.19-0.001 0.284-0.003h5.533c5.065-2.072 8.569-6.963 8.569-12.671 0-0.346-0.013-0.688-0.038-1.027l0.003 0.045z" />
<glyph unicode="&#xe90f;" glyph-name="flag" data-tags="flag" d="M143.36-19.712h-92.16v1011.712h92.16zM972.8 531.2v460.8c-20.137-44.57-52.21-80.76-92.163-105.398l-1.021-0.586c-29.461-17.381-64.914-27.649-102.764-27.649-5.097 0-10.15 0.186-15.153 0.552l0.67-0.039c-46.9 3.922-90.12 12.083-131.647 24.209l4.671-1.169-130.56 36.352c-33.362 10.507-72.493 18.464-112.816 22.343l-2.384 0.185c-4.127 0.459-8.911 0.721-13.757 0.721-30.662 0-58.875-10.488-81.247-28.072l0.283 0.215c-30.475-26.771-51.954-63.127-59.724-104.326l-0.18-1.146v-460.8c32.063 33.398 71.223 59.723 115.079 76.579l2.169 0.733c27.644 10.751 59.641 16.981 93.094 16.981 8.504 0 16.914-0.403 25.213-1.19l-1.059 0.081c42.403-4.716 80.471-12.097 117.403-22.225l-5.275 1.233q56.832-15.36 109.568-27.648c26.109-6.714 56.082-10.569 86.956-10.569 5.432 0 10.835 0.119 16.209 0.355l-0.765-0.027c36.416 2.588 69.12 16.67 94.957 38.596l-0.237-0.196c35.295 30.184 63.794 67.202 83.635 109.119l0.845 1.985z" />
<glyph unicode="&#xe910;" glyph-name="flash-answer-first" data-tags="flash-answer-first" d="M1030.656 90.368h-894.976v666.112h894.976v-666.112zM89.088 242.944v560.128h845.312v86.528h-934.4v-646.656h89.088z" />
<glyph unicode="&#xe911;" glyph-name="flashc-question-first" data-tags="flashc-question-first" d="M0 870.095h875.276v-651.459h-875.276v651.459zM920.625 720.884v-547.596h-826.514v-84.846h913.31v632.442h-86.796z" />
<glyph unicode="&#xe912;" glyph-name="google-plus" data-tags="google-plus" horiz-adv-x="1034" d="M447.884 394.976l-10.221 6.969c-9.844 3.122-21.175 4.981-32.921 5.11l-0.067 0.001c-52.501 0-98.497-31.593-98.497-67.368 5.385-39.63 39.006-69.849 79.685-69.849 3.52 0 6.987 0.226 10.387 0.665l-0.402-0.042c66.439 0 99.891 22.766 99.891 67.368 0.251 1.953 0.394 4.212 0.394 6.505s-0.143 4.552-0.421 6.769l0.027-0.264c-7.434 17.191-23.695 27.877-47.855 44.138zM410.715 531.107c0.175-0.003 0.381-0.004 0.588-0.004 12.173 0 23.089 5.381 30.499 13.894l0.042 0.049c10.386 13.46 16.646 30.567 16.646 49.136 0 5.132-0.478 10.151-1.392 15.018l0.078-0.502c-2.276 41.56-32.385 75.472-71.899 83.531l-0.58 0.099c-0.175 0.003-0.381 0.004-0.588 0.004-12.173 0-23.089-5.381-30.499-13.894l-0.042-0.049c-10.132-13.037-16.244-29.637-16.244-47.665 0-5.161 0.501-10.205 1.457-15.087l-0.081 0.494c6.040-46.461 39.027-84.094 72.479-85.024zM517.111 992c-0.557 0.002-1.216 0.003-1.875 0.003-283.097 0-512.869-228.311-515.234-510.85l-0.001-0.225c0-285.592 231.518-517.111 517.111-517.111s517.111 231.518 517.111 517.111v0c-2.366 282.763-232.138 511.074-515.235 511.074-0.659 0-1.318-0.001-1.977-0.004h0.101zM457.641 230.505c-18.407-5.312-39.549-8.367-61.405-8.367-0.463 0-0.926 0.001-1.388 0.004h0.071c-0.099 0-0.217 0-0.335 0-24.621 0-48.53 3.050-71.37 8.792l2.013-0.429c-37.212 6.611-68.61 27.506-88.91 56.699l-0.295 0.448c-6.063 10.255-9.677 22.585-9.757 35.752v0.023c0.137 14.237 3.553 27.645 9.528 39.546l-0.236-0.519c29.771 49.974 83.526 82.931 144.978 82.931 3.098 0 6.177-0.084 9.234-0.249l-0.426 0.018c-5.198 8.637-8.298 19.049-8.363 30.181v0.018c-0.327 2.442-0.514 5.264-0.514 8.131s0.187 5.689 0.549 8.457l-0.035-0.326c-67.742 0-122.657 54.915-122.657 122.657v0c4.608 54.451 41.897 99.097 91.994 114.513l0.928 0.246c15.466 5.596 33.315 8.831 51.92 8.831 0.368 0 0.735-0.001 1.102-0.004h153.265c0.036 0 0.079 0.001 0.121 0.001 5.343 0 9.876-3.469 11.47-8.278l0.024-0.085c0.34-1.064 0.536-2.288 0.536-3.557 0-4.090-2.033-7.705-5.143-9.891l-0.039-0.026-34.381-24.624c-1.043-0.326-2.242-0.513-3.485-0.513s-2.442 0.188-3.57 0.536l0.086-0.023h-12.080c15.671-19.845 25.138-45.221 25.138-72.809 0-1.191-0.018-2.378-0.053-3.561l0.004 0.173c-0.852-36.418-18.822-68.469-46.146-88.52l-0.315-0.221c-24.16-18.584-25.089-23.695-25.089-33.917 8.537-15.529 20.486-28.222 34.897-37.388l0.413-0.246c35.070-20.775 58.215-58.421 58.215-101.474 0-4.188-0.219-8.325-0.646-12.4l0.043 0.508c-5.119-55.482-45.96-100.11-99.091-110.906l-0.8-0.136zM804.704 491.615c0-6.672-5.408-12.080-12.080-12.080v0h-87.347v-86.417c0-6.672-5.408-12.080-12.080-12.080v0h-25.089c-6.672 0-12.080 5.408-12.080 12.080v0 87.811h-87.347c-6.672 0-12.080 5.408-12.080 12.080v0 24.624c0 6.672 5.408 12.080 12.080 12.080v0h87.347v85.024c0 6.672 5.408 12.080 12.080 12.080v0h25.089c6.672 0 12.080-5.408 12.080-12.080v0-87.347h87.347c6.672 0 12.080-5.408 12.080-12.080v0z" />
<glyph unicode="&#xe913;" glyph-name="img" data-tags="img" d="M1029.12-27.904h-1029.12v994.304h1029.12v-994.304zM122.368 96h784.384v748.032h-784.384v-748.032zM618.496 528.64l-55.296-92.16-56.32-90.112-55.808-90.112-56.32-90.624h447.488l-167.424 270.336zM351.744 426.24l-40.448-65.024-39.936-65.536-80.896-130.048h321.536l-40.448 65.024-38.912 65.024-40.448 65.024zM409.6 736.512c-22.252 22.327-53.032 36.141-87.040 36.141-67.865 0-122.88-55.015-122.88-122.88s55.015-122.88 122.88-122.88c67.759 0 122.708 54.844 122.88 122.562v0.016c0.001 0.152 0.001 0.332 0.001 0.512 0 33.791-13.697 64.383-35.841 86.528v0z" />
<glyph unicode="&#xe914;" glyph-name="import" data-tags="import" d="M522.728 223.512l247.71 298.423h-494.933l247.223-298.423 247.71 298.423h-494.933l247.223-298.423zM633.905 376.625h-222.842v590.994h222.842v-590.994zM1045.455-27.124h-1045.455v813.836h286.232v-99.474h-186.758v-614.888h846.507v614.888h-186.758v99.474h286.232v-813.836z" />
<glyph unicode="&#xe915;" glyph-name="like" data-tags="like" d="M0 12.861h185.295v572.952h-185.295zM1018.636 538.027c0.029 0.878 0.046 1.909 0.046 2.945 0 51.575-41.274 93.511-92.594 94.577l-0.099 0.002h-292.084l48.762 217.478v14.141c-2.050 19.706-9.43 37.375-20.656 51.925l0.176-0.237-48.762 48.762-307.688-315.002c-17.184-14.925-27.987-36.81-27.987-61.217 0-1.966 0.070-3.915 0.208-5.846l-0.015 0.259v-477.379c-0.040-1.021-0.062-2.22-0.062-3.424 0-51.483 41.34-93.311 92.636-94.099l0.074-0.001h416.914c37.656 0.722 69.689 24.040 83.161 56.928l0.222 0.611 138.971 341.333c2.926 8.179 4.618 17.615 4.618 27.446 0 2.182-0.083 4.344-0.247 6.484l0.017-0.284v97.524z" />
<glyph unicode="&#xe916;" glyph-name="link" data-tags="link" d="M868.267 839.68l-2.987 2.987c-34.284 34.293-81.652 55.505-133.973 55.505s-99.69-21.212-133.973-55.504l-170.667-170.667c-34.039-34.241-55.079-81.437-55.079-133.547s21.040-99.306 55.088-133.556l2.978-2.978c5.861-5.853 12.126-11.306 18.747-16.312l0.453-0.328 63.147 62.72c-7.778 4.602-14.497 9.828-20.484 15.79l-2.983 2.983c-18.478 18.522-29.905 44.087-29.905 72.32s11.426 53.798 29.907 72.322l170.665 170.665c18.522 18.478 44.087 29.905 72.32 29.905s53.798-11.426 72.322-29.907l2.985-2.985c18.478-18.522 29.905-44.087 29.905-72.32s-11.426-53.798-29.907-72.322l-76.798-76.798c12.169-29.253 19.236-63.234 19.236-98.866 0-1.543-0.013-3.082-0.040-4.618l0.003 0.231 119.040 119.040c33.787 34.197 54.657 81.221 54.657 133.12s-20.87 98.923-54.675 133.139l0.019-0.019zM616.533 594.347c-5.864 5.844-12.128 11.297-18.744 16.309l-0.456 0.331-62.293-62.293c7.778-4.602 14.497-9.828 20.484-15.79l2.983-2.983c18.478-18.522 29.905-44.087 29.905-72.32s-11.426-53.798-29.907-72.322l-170.665-170.665c-18.522-18.478-44.087-29.905-72.32-29.905s-53.798 11.426-72.322 29.907l-2.985 2.985c-18.478 18.522-29.905 44.087-29.905 72.32s11.426 53.798 29.907 72.322l76.798 76.798c-11.672 28.705-18.446 62.005-18.446 96.887 0 2.539 0.036 5.069 0.107 7.59l-0.008-0.371-119.040-119.040c-34.039-34.241-55.079-81.437-55.079-133.547s21.040-99.306 55.088-133.556l2.978-2.978c34.241-34.039 81.437-55.079 133.547-55.079s99.306 21.040 133.556 55.088l170.658 170.658c34.039 34.241 55.079 81.437 55.079 133.547s-21.040 99.306-55.088 133.556l0.009-0.009z" />
<glyph unicode="&#xe917;" glyph-name="list" data-tags="list" d="M0 940.8h252.416v-252.416h-252.416v252.416zM353.28 940.8h670.72v-252.416h-670.72v252.416zM0 603.904h252.416v-252.416h-252.416v252.416zM353.28 603.904h670.72v-252.416h-670.72v252.416zM0 266.496h252.416v-252.416h-252.416v252.416zM353.28 266.496h670.72v-252.416h-670.72v252.416z" />
<glyph unicode="&#xe918;" glyph-name="log-out" data-tags="log-out" d="M426.667 320l62.293-62.293 223.147 222.293-222.293 222.293-63.147-62.293 116.48-117.333h-431.36v-85.333h430.933zM823.040 879.787h-622.080c0 0-0.001 0-0.001 0-49.099 0-88.93-39.681-89.172-88.723v-177.516h89.173v177.493h622.080v-622.080h-622.080v177.493h-89.173v-177.92c0.241-48.916 39.83-88.506 88.724-88.747h622.53c48.916 0.241 88.506 39.83 88.747 88.724v622.53c-0.241 48.916-39.83 88.506-88.724 88.747h-0.023z" />
<glyph unicode="&#xe919;" glyph-name="marker" data-tags="marker" d="M160 238.72v-263.040l677.76 508.16-677.76 508.16v-768z" />
<glyph unicode="&#xe91a;" glyph-name="move-to-top" data-tags="move-to-top" d="M69.818 992h900.655v-130.327h-900.655v130.327zM520.378 777.891l-269.498-324.887h538.531l-269.033 324.887-269.498-324.887h538.531l-269.033 324.887zM398.895 611.258h242.502v-643.258h-242.502v643.258z" />
<glyph unicode="&#xe91b;" glyph-name="home" data-tags="home" d="M477.716 915.249c21.741 19.669 54.844 19.669 76.585 0l0.001-0.001 392.879-355.461c38.72-35.034 13.978-99.42-38.291-99.42h-63.814v-359.241c0-37.062-30.035-67.123-67.117-67.123h-148.773c-20.435 0-37 16.563-37 36.998v233.76c0 44.090-35.74 79.828-79.827 79.828s-79.828-35.739-79.828-79.828v-233.76c0-20.435-16.565-36.998-37-36.998h-141.471c-37.080 0-67.12 30.061-67.12 67.123v359.241h-63.811c-52.268 0-77.012 64.386-38.294 99.42l0.001 0.001 392.881 355.461zM516.009 850.101l-348.972-315.734h56.903c20.435 0 37-16.565 37-37v-389.368h97.59v196.762c0 84.957 68.871 153.828 153.828 153.828s153.824-68.871 153.824-153.828v-196.762h104.896v389.368c0 20.435 16.563 37 36.998 37h56.902l-348.97 315.734z" />
<glyph unicode="&#xe91c;" glyph-name="off" data-tags="off" d="M916.211 992l88.926-88.926-889.263-948.547-88.926 88.926z" />
<glyph unicode="&#xe91d;" glyph-name="phone" data-tags="phone" d="M0 356.189v83.316c3.248 15.947 9.576 30.028 18.372 42.21l-0.219-0.319c128.58 128.802 306.331 208.482 502.691 208.482s374.111-79.681 502.682-208.473l0.009-0.009c7.947-11.668 13.795-25.438 16.647-40.274l0.11-0.686v-84.247c-2.007-34.584-21.541-64.195-49.782-80.269l-0.487-0.255-12.567-5.12c-13.726-5.978-29.717-9.456-46.52-9.456-19.163 0-37.269 4.524-53.309 12.561l0.687-0.312-99.142 55.855c-27.226 17.699-45.666 46.936-48.383 80.614l-0.024 0.376v57.251c-60.285 34.467-132.497 54.79-209.455 54.79s-149.169-20.323-211.56-55.895l2.105 1.105v-57.251c-3.246-34.69-22.754-64.221-50.728-81.189l-0.472-0.266-99.607-55.855c-15.164-7.504-33.017-11.894-51.895-11.894-16.903 0-32.984 3.519-47.55 9.866l0.769-0.298-11.636 6.051c-28.671 16.061-48.3 45.29-50.717 79.278l-0.018 0.315z" />
<glyph unicode="&#xe91e;" glyph-name="microphone" data-tags="phone2" d="M474.298 992h54.458c78.661 0 142.429-63.768 142.429-142.429v-360.727c0-78.661-63.768-142.429-142.429-142.429h-54.458c-78.661 0-142.429 63.768-142.429 142.429v360.727c0 78.661 63.768 142.429 142.429 142.429zM501.295 159.302c-199.632 0.265-361.394 162.026-361.658 361.633v0.025h104.262c0-142.156 115.24-257.396 257.396-257.396s257.396 115.24 257.396 257.396v0h104.262c-0.265-199.632-162.026-361.394-361.633-361.658h-0.025zM449.164 219.811h104.262v-242.036h-104.262v242.036z" />
<glyph unicode="&#xe91f;" glyph-name="play" data-tags="play" d="M511.773-32c-282.449 0.259-511.319 229.288-511.319 511.773 0 282.644 229.129 511.773 511.773 511.773 282.485 0 511.514-228.87 511.773-511.294v-0.024c-0.258-282.791-229.435-511.968-512.202-512.227h-0.026zM511.773 946.59c-257.37-0.259-465.909-208.957-465.909-466.363 0-257.565 208.798-466.363 466.363-466.363s466.363 208.798 466.363 466.363v0c-0.516 257.516-209.264 466.105-466.792 466.363h-0.025zM697.047 480.227l-285.176-273.369v546.285l142.588-136.685 142.588-136.231z" />
<glyph unicode="&#xe920;" glyph-name="pluss" data-tags="pluss" d="M1024 394.906h-426.906v-426.428h-170.667v426.428h-426.428v170.667h426.428v426.428h170.667v-426.428h426.428z" />
<glyph unicode="&#xe921;" glyph-name="preview" data-tags="preview" d="M111.36 441.173h378.88v-154.453h-378.88v154.453zM551.68 441.173h378.88v-154.453h-378.88v154.453zM111.36 223.573h378.88v-154.453h-378.88v154.453zM551.68 223.573h378.88v-154.453h-378.88v154.453zM111.36 869.12h819.2v-354.133h-819.2v354.133z" />
<glyph unicode="&#xe922;" glyph-name="smile-happy" data-tags="progress-learn-max" d="M512 992c-282.77 0-512-229.23-512-512s229.23-512 512-512c282.77 0 512 229.23 512 512v0c-0.276 282.659-229.341 511.724-511.973 512h-0.027zM512 23.378c-252.186 0-456.622 204.437-456.622 456.622s204.437 456.622 456.622 456.622c252.186 0 456.622-204.437 456.622-456.622v0c0.001-0.434 0.002-0.947 0.002-1.46 0-251.381-203.784-455.165-455.165-455.165-0.513 0-1.027 0.001-1.54 0.003h0.080zM344.896 649.533c0.579 0.022 1.26 0.034 1.943 0.034 30.584 0 55.378-24.793 55.378-55.378s-24.793-55.378-55.378-55.378c-30.572 0-55.358 24.774-55.378 55.342v0.002c0 0.010 0 0.022 0 0.034 0 29.901 23.698 54.267 53.337 55.341l0.098 0.003zM687.362 649.533c30.375-0.275 54.892-24.962 54.892-55.375 0-30.584-24.793-55.378-55.378-55.378s-55.376 24.792-55.378 55.375v0c0 0.001 0 0.001 0 0.002 0 30.584 24.793 55.378 55.378 55.378 0.171 0 0.341-0.001 0.512-0.002h-0.026zM511.028 196.311c111.977 0.125 210.515 57.55 267.884 144.527l0.746 1.204-48.577 30.118c-47.494-73.022-128.7-120.631-221.025-120.631s-173.53 47.609-220.405 119.616l-0.62 1.015-48.577-30.118c50.901-78.665 133.412-133.155 229.127-145.56l1.613-0.171c5.956-0.402 12.909-0.632 19.917-0.632s13.961 0.229 20.854 0.681l-0.938-0.049z" />
<glyph unicode="&#xe923;" glyph-name="smile-normal" data-tags="progress-learn-middle" d="M512 968c-269.516 0-488-218.484-488-488s218.484-488 488-488c269.516 0 488 218.484 488 488v0c-0.264 269.408-218.592 487.736-487.973 488h-0.027zM512 44.783c-240.366 0-435.217 194.855-435.217 435.217s194.855 435.217 435.217 435.217c240.366 0 435.217-194.855 435.217-435.217v0c0.001-0.413 0.002-0.902 0.002-1.391 0-239.597-194.232-433.829-433.829-433.829-0.489 0-0.979 0.001-1.468 0.003h0.077zM357.358 497.13c30.072 0.135 54.397 24.544 54.397 54.632 0 30.172-24.46 54.633-54.633 54.633s-54.633-24.46-54.633-54.633c0-7.341 1.447-14.342 4.072-20.735l-0.133 0.364c8.298-20.255 27.859-34.261 50.694-34.261 0.084 0 0.165 0 0.249 0.001h-0.013zM744.888 531.393c2.492 6.029 3.939 13.031 3.939 20.371 0 30.172-24.46 54.633-54.633 54.633s-54.633-24.46-54.633-54.633c0-30.172 24.46-54.633 54.633-54.633 0.081 0 0.158 0 0.239 0.001h-0.013c0.027 0 0.056 0 0.088 0 22.75 0 42.225 14.024 50.249 33.897l0.13 0.364zM412.456 297.115h224.555v-54.171h-224.555z" />
<glyph unicode="&#xe924;" glyph-name="smile-rueful" data-tags="progress-learn-min" d="M517.841 949.573c-262.563 0-475.413-212.851-475.413-475.413s212.851-475.413 475.413-475.413c262.563 0 475.413 212.851 475.413 475.413v0c-0.255 262.462-212.951 475.158-475.39 475.413h-0.023zM517.841 50.87c-233.935 0.12-423.528 189.789-423.528 423.737 0 234.024 189.713 423.737 423.737 423.737 111.036 0 212.099-42.71 287.657-112.596l-0.282 0.256c38.645-35.861 70.461-78.448 93.7-125.991l1.114-2.522c26.187-53.489 41.498-116.4 41.498-182.887 0-234.024-189.713-423.737-423.737-423.737-0.056 0-0.112 0-0.168 0h0.009zM358.773 524.935c28.29 0.001 51.224 22.936 51.224 51.226s-22.935 51.226-51.226 51.226c-28.132 0-50.971-22.68-51.224-50.752v-0.023c-0.001-0.133-0.002-0.292-0.002-0.451 0-28.291 22.935-51.226 51.226-51.226 0.001 0 0.001 0 0.002 0v0zM676.912 524.935c28.291 0 51.226 22.935 51.226 51.226s-22.935 51.226-51.226 51.226c-28.291 0-51.226-22.935-51.226-51.226v0c0-28.291 22.935-51.226 51.226-51.226v0zM560.080 390.131h-76.388c-96.472-0.736-174.396-79.114-174.396-175.69 0-1.424 0.016-2.844 0.051-4.26l-0.004 0.211c0-12.409 10.058-22.467 22.467-22.467s22.467 10.058 22.467 22.467v0c-0.041 1.206-0.063 2.626-0.063 4.050 0 71.767 57.814 130.028 129.408 130.753l0.068 0.001h75.941c71.583-0.511 129.414-58.655 129.414-130.309 0-0.001 0-0.002 0-0.003v0c0-12.409 10.058-22.467 22.467-22.467s22.467 10.058 22.467 22.467v0c0 0.001 0 0.003 0 0.005 0 96.313-77.693 174.478-173.826 175.242h-0.072z" />
<glyph unicode="&#xe925;" glyph-name="question" data-tags="question" d="M512 992c-282.77 0-512-229.23-512-512s229.23-512 512-512c282.77 0 512 229.23 512 512v0c0 282.77-229.23 512-512 512v0zM541.696 130.304c-11.232-10.547-26.392-17.026-43.064-17.026-1.421 0-2.832 0.047-4.229 0.14l0.19-0.010c-1.322-0.1-2.863-0.158-4.417-0.158-16.558 0-31.598 6.496-42.713 17.078l0.026-0.024c-10.155 10.563-16.409 24.942-16.409 40.781 0 0.603 0.009 1.204 0.027 1.803l-0.002-0.088c-0.003 0.235-0.005 0.513-0.005 0.791 0 8.351 1.503 16.351 4.254 23.744l-0.153-0.471c5.676 14.971 17.285 26.58 31.88 32.13l0.376 0.126c8.080 2.95 17.409 4.656 27.136 4.656s19.056-1.706 27.703-4.835l-0.567 0.179c7.798-2.947 14.456-7.301 19.969-12.801l-0.001 0.001c5.18-5.442 9.344-11.908 12.15-19.056l0.138-0.4c2.916-7.12 4.608-15.384 4.608-24.042 0-0.008 0-0.015 0-0.023v0.001c0.011-0.419 0.017-0.912 0.017-1.407 0-16.027-6.459-30.545-16.917-41.093l0.004 0.004zM695.296 566.016c-6.972-19.538-15.793-36.456-26.577-51.903l0.465 0.703c-11.639-16.575-23.747-31.121-36.93-44.611l0.066 0.067q-20.992-21.504-43.008-41.984c-15.372-13.442-27.051-30.738-33.56-50.39l-0.232-0.81c-5.821-18.689-9.188-40.178-9.216-62.45v-0.014h-107.52c-0.008 0.891-0.012 1.945-0.012 3 0 19.18 1.494 38.011 4.371 56.383l-0.263-2.039c4.917 31.673 17.831 59.688 36.6 82.747l-0.248-0.315c10.79 15.067 21.54 28.255 33.037 40.744l-0.269-0.296 29.184 29.184c8.555 8.539 16.45 17.733 23.605 27.502l0.459 0.658c6.486 8.847 12.012 18.992 16.095 29.845l0.289 0.875c3.898 10.399 6.153 22.417 6.153 34.962 0 0.489-0.003 0.976-0.010 1.463l0.001-0.074c0.248 2.558 0.39 5.53 0.39 8.535 0 21.545-7.272 41.391-19.495 57.219l0.161-0.217c-14.819 14.372-35.056 23.231-57.361 23.231-1.976 0-3.935-0.070-5.876-0.206l0.261 0.015c-0.022 0-0.047 0-0.073 0-11.469 0-22.546-1.684-32.995-4.817l0.812 0.209c-10.828-3.24-20.222-8.328-28.301-14.96l0.141 0.112c-8.376-7.056-15.119-15.766-19.774-25.652l-0.194-0.46c-4.868-10.486-7.708-22.761-7.708-35.699 0-0.77 0.010-1.537 0.030-2.301l-0.002 0.113h-113.152c-0.009 0.674-0.014 1.47-0.014 2.268 0 26.992 5.851 52.617 16.353 75.677l-0.467-1.145c10.307 21.932 24.66 40.382 42.246 55.093l0.25 0.203c17.914 14.741 39.077 26.303 62.182 33.444l1.306 0.348c22.827 7.155 49.075 11.276 76.286 11.276 0.901 0 1.8-0.005 2.699-0.014l-0.137 0.001c1.021 0.014 2.227 0.022 3.435 0.022 28.577 0 56.102-4.502 81.906-12.836l-1.884 0.526c23.993-7.757 44.672-19.844 62.114-35.47l-0.162 0.142c16.588-15.279 29.662-34.108 38.046-55.304l0.354-1.016c8.438-21.574 13.328-46.554 13.328-72.675 0-0.91-0.006-1.819-0.018-2.727l0.001 0.138c0.001-0.234 0.002-0.512 0.002-0.789 0-19.922-3.567-39.010-10.096-56.662l0.366 1.131z" />
<glyph unicode="&#xe926;" glyph-name="reviews" data-tags="reviews" d="M102.4 966.4h841.216c55.66-2.168 100.232-46.74 102.394-102.199l0.006-0.201v-579.072c-2.168-55.66-46.74-100.232-102.199-102.394l-0.201-0.006h-498.688l-169.984-188.928c-3.188-3.462-7.741-5.626-12.799-5.632h-6.145c-6.639 2.555-11.264 8.881-11.264 16.288 0 0.034 0 0.068 0 0.101v-0.005 175.616h-142.336c-55.66 2.168-100.232 46.74-102.394 102.199l-0.006 0.201v581.632c2.168 55.66 46.74 100.232 102.199 102.394l0.201 0.006z" />
<glyph unicode="&#xe927;" glyph-name="schedule" data-tags="schedule" d="M856.32 824.32h-45.653v-98.56h-156.16v98.56h-285.013v-98.56h-156.16v98.56h-42.667c-0.89 0.029-1.936 0.045-2.987 0.045-54.433 0-98.56-44.127-98.56-98.56 0-0.016 0-0.032 0-0.048v0.002-590.080c0-54.433 44.127-98.56 98.56-98.56v0h688.64c54.433 0 98.56 44.127 98.56 98.56v0 590.080c0 54.433-44.127 98.56-98.56 98.56v0zM856.32 135.68h-688.64v393.387h688.64zM325.12 922.453h-69.12v-166.827h69.12zM768 922.453h-69.12v-166.827h69.12z" />
<glyph unicode="&#xe928;" glyph-name="search" data-tags="search" d="M414.476 211.809c-215.444 0-390.095 174.652-390.095 390.095s174.652 390.095 390.095 390.095c215.444 0 390.095-174.652 390.095-390.095v0c0-215.444-174.652-390.095-390.095-390.095v0zM414.476 884.724c-0.434 0.002-0.947 0.004-1.461 0.004-155.658 0-281.844-126.186-281.844-281.844s126.186-281.844 281.844-281.844c155.314 0 281.286 125.628 281.842 280.812v0.053c0.001 0.291 0.002 0.635 0.002 0.979 0 155.144-125.354 281.011-280.304 281.84h-0.079zM628.81 350.284l6.896 6.896c18.091 18.091 47.421 18.091 65.512 0l205.155-205.155c18.091-18.091 18.091-47.421 0-65.512l-6.896-6.896c-18.091-18.091-47.421-18.091-65.512 0l-205.155 205.155c-18.091 18.091-18.091 47.421 0 65.512zM703.372 269.566l12.413 12.413c33.896 33.896 88.852 33.896 122.748 0l151.022-151.022c33.896-33.896 33.896-88.852 0-122.748l-12.413-12.413c-33.896-33.896-88.852-33.896-122.748 0l-151.022 151.022c-33.896 33.896-33.896 88.852 0 122.748z" />
<glyph unicode="&#xe929;" glyph-name="setting" data-tags="setting" d="M889.484 437.644c2.153 14.64 3.499 31.724 3.721 49.079l0.003 0.259c-0.224 17.614-1.57 34.699-3.971 51.442l0.247-2.104 106.589 83.316c5.236 4.707 8.514 11.503 8.514 19.064 0 5.007-1.437 9.678-3.922 13.624l0.062-0.106-99.607 174.545c-4.526 7.632-12.722 12.668-22.094 12.668-3.094 0-6.059-0.549-8.804-1.554l0.178 0.057-125.673-50.269c-24.583 19.198-52.65 35.756-82.754 48.432l-2.424 0.906-19.549 133.585c-1.665 12.151-11.977 21.412-24.453 21.412-0.076 0-0.152 0-0.228-0.001h-201.995c-0.064 0.001-0.14 0.001-0.216 0.001-12.476 0-22.789-9.261-24.439-21.283l-0.014-0.128-19.084-133.585c-32.518-13.827-60.562-30.365-86.090-50.012l0.911 0.674-125.673 50.269c-2.68 1.087-5.789 1.718-9.045 1.718-9.306 0-17.409-5.153-21.61-12.762l-0.064-0.127-101.004-174.545c-2.307-3.683-3.675-8.159-3.675-12.954 0-7.98 3.789-15.076 9.667-19.585l0.059-0.043 106.124-82.851c-2.134-14.618-3.479-31.702-3.72-49.052l-0.003-0.287c0.245-17.637 1.59-34.72 3.972-51.469l-0.248 2.131-106.124-83.782c-5.675-4.729-9.26-11.799-9.26-19.707 0-4.555 1.19-8.832 3.275-12.538l-0.066 0.128 101.004-174.545c4.526-7.632 12.722-12.668 22.094-12.668 3.094 0 6.059 0.549 8.804 1.554l-0.178-0.057 125.673 50.269c24.583-19.198 52.65-35.756 82.754-48.432l2.424-0.906 19.084-133.585c1.665-12.151 11.977-21.412 24.453-21.412 0.076 0 0.152 0 0.228 0.001h201.995c0.064-0.001 0.14-0.001 0.216-0.001 12.476 0 22.789 9.261 24.439 21.283l0.014 0.128 19.084 133.585c32.697 13.792 60.899 30.336 86.568 50.019l-0.924-0.681 125.673-50.269c2.68-1.087 5.789-1.718 9.045-1.718 9.306 0 17.409 5.153 21.61 12.762l0.064 0.127 99.607 174.545c2.019 3.577 3.209 7.854 3.209 12.41 0 7.907-3.585 14.978-9.219 19.673l-0.041 0.033zM514.327 310.575c-97.684 0-176.873 79.189-176.873 176.873s79.189 176.873 176.873 176.873c97.684 0 176.873-79.189 176.873-176.873v0c0-97.684-79.189-176.873-176.873-176.873v0z" />
<glyph unicode="&#xe92a;" glyph-name="shared" data-tags="shared" d="M407.893 480.427c0-84.595-68.578-153.173-153.173-153.173s-153.173 68.578-153.173 153.173c0 84.595 68.578 153.173 153.173 153.173s153.173-68.578 153.173-153.173zM846.507 766.72c0-84.595-68.578-153.173-153.173-153.173s-153.173 68.578-153.173 153.173c0 84.595 68.578 153.173 153.173 153.173s153.173-68.578 153.173-153.173zM846.507 194.133c0-84.595-68.578-153.173-153.173-153.173s-153.173 68.578-153.173 153.173c0 84.595 68.578 153.173 153.173 153.173s153.173-68.578 153.173-153.173zM678.4 171.52l-473.173 308.907 473.173 308.907 29.44-45.227-403.627-263.68 403.627-263.68-29.44-45.227z" />
<glyph unicode="&#xe92b;" glyph-name="star" data-tags="star" d="M514.438 967.619l121.417-374.004h393.021l-317.928-230.644 121.417-374.004-317.928 231.131-317.928-231.131 121.417 374.004-317.928 230.644h393.021l121.417 374.004z" />
<glyph unicode="&#xe92c;" glyph-name="star-frame" data-tags="star-frame" d="M1029.12 596.364h-392.844l-121.484 372.364-121.484-372.364h-393.309l317.905-232.727-121.484-372.364 317.905 232.727 317.905-232.727-121.484 372.364zM514.793 303.127l-191.302-139.636 73.076 224.815-191.302 139.636h236.451l73.076 224.815 73.076-224.815h236.451l-191.302-139.636 73.076-224.815z" />
<glyph unicode="&#xe92d;" glyph-name="stop" data-tags="stop" d="M512-32c-282.77 0-512 229.23-512 512s229.23 512 512 512c282.77 0 512-229.23 512-512v0c-0.261-282.665-229.335-511.739-511.975-512h-0.025zM512 946.081c-257.409 0-466.081-208.671-466.081-466.081s208.671-466.081 466.081-466.081c257.409 0 466.081 208.671 466.081 466.081v0c-0.261 257.304-208.777 465.82-466.056 466.081h-0.025zM328.323 663.677h367.354v-367.354h-367.354v367.354z" />
<glyph unicode="&#xe92e;" glyph-name="twitter" data-tags="twitter" horiz-adv-x="1034" d="M517.111 992c-0.557 0.002-1.216 0.003-1.875 0.003-283.097 0-512.869-228.311-515.234-510.85l-0.001-0.225c0-285.592 231.518-517.111 517.111-517.111s517.111 231.518 517.111 517.111v0c-2.366 282.763-232.138 511.074-515.235 511.074-0.659 0-1.318-0.001-1.977-0.004h0.101zM749.416 597.082c0-5.111 0-10.221 0-15.332-0.77-184.166-150.243-333.164-334.516-333.164-1.798 0-3.592 0.014-5.383 0.042l0.27-0.003c-0.136 0-0.298 0-0.459 0-67.588 0-130.565 19.743-183.479 53.777l1.347-0.811c4.236-0.27 9.185-0.424 14.171-0.424s9.934 0.154 14.843 0.457l-0.673-0.033c0.065 0 0.142 0 0.218 0 55.853 0 107.254 19.063 148.051 51.038l-0.524-0.396c-51.614 0.872-95.152 34.489-110.797 80.933l-0.245 0.839c3.343-0.336 7.224-0.528 11.151-0.528s7.808 0.192 11.636 0.566l-0.485-0.038c4.133-0.499 8.918-0.784 13.77-0.784 6.124 0 12.143 0.454 18.024 1.33l-0.664-0.081c-53.867 10.858-94.051 57.25-95.243 113.238l-0.002 0.127c15.551-8.749 34.018-14.175 53.69-14.862l0.205-0.006c-32.009 21.343-52.81 57.299-52.81 98.114 0 21.89 5.984 42.383 16.404 59.931l-0.298-0.543c59.047-70.575 145.413-116.598 242.62-121.693l0.836-0.035c-0.499 4.044-0.784 8.726-0.784 13.474s0.285 9.429 0.838 14.028l-0.054-0.554c1.899 64.462 54.609 115.996 119.356 115.996 33.292 0 63.402-13.625 85.058-35.604l0.014-0.014c28.059 5.856 52.941 15.833 75.407 29.405l-1.069-0.6c-9.353-27.797-27.901-50.411-51.957-64.745l-0.544-0.3c25.34 3.072 48.41 9.615 69.824 19.195l-1.527-0.61c-15.807-23.984-34.928-44.288-56.994-60.884l-0.617-0.445z" />
<glyph unicode="&#xe92f;" glyph-name="user" data-tags="user" horiz-adv-x="1033" d="M774.345 734.039c0-142.468-115.493-257.961-257.961-257.961s-257.961 115.493-257.961 257.961c0 142.468 115.493 257.961 257.961 257.961s257.961-115.493 257.961-257.961zM1032.768 127.668c0-213.199-1032.768-213.199-1032.768 0s230.735 385.788 516.384 385.788 516.384-172.589 516.384-385.788z" />
<glyph unicode="&#xe930;" glyph-name="user-sircle" data-tags="user-sircle" d="M649.387 435.627c0-75.877-61.51-137.387-137.387-137.387s-137.387 61.51-137.387 137.387c0 75.877 61.51 137.387 137.387 137.387s137.387-61.51 137.387-137.387zM649.387 794.88c0-75.877-61.51-137.387-137.387-137.387s-137.387 61.51-137.387 137.387c0 75.877 61.51 137.387 137.387 137.387s137.387-61.51 137.387-137.387zM980.48 613.12c0-75.877-61.51-137.387-137.387-137.387s-137.387 61.51-137.387 137.387c0 75.877 61.51 137.387 137.387 137.387s137.387-61.51 137.387-137.387zM318.293 613.12c0-75.877-61.51-137.387-137.387-137.387s-137.387 61.51-137.387 137.387c0 75.877 61.51 137.387 137.387 137.387s137.387-61.51 137.387-137.387zM786.773 113.067c0-113.493-549.547-113.493-549.547 0s122.88 205.227 274.773 205.227 274.773-91.733 274.773-205.227z" />
<glyph unicode="&#xe931;" glyph-name="video" data-tags="video" d="M977.455 787.2c-4.128 1.615-8.904 2.625-13.893 2.791l-0.071 0.002c-0.322 0.011-0.7 0.017-1.080 0.017-9.363 0-17.853-3.736-24.062-9.798l0.007 0.007-222.953-204.335v83.782c0.007 0.527 0.012 1.148 0.012 1.771 0 40.518-17.976 76.837-46.388 101.417l-0.169 0.143c-28.896 26.584-67.619 42.88-110.147 42.88-1.531 0-3.058-0.021-4.579-0.063l0.224 0.005h-393.309c-1.297 0.037-2.823 0.058-4.355 0.058-42.529 0-81.251-16.296-110.263-42.985l0.116 0.105c-28.584-24.805-46.554-61.189-46.554-101.771 0-0.548 0.003-1.096 0.010-1.643l-0.001 0.083v-357.469c0.091-40.469 18.039-76.728 46.379-101.328l0.166-0.141c29.358-28.782 69.611-46.546 114.013-46.546 0.172 0 0.343 0 0.515 0.001h393.282c44.233 0.177 84.291 17.904 113.601 46.574l-0.030-0.029c28.584 24.805 46.554 61.189 46.554 101.771 0 0.548-0.003 1.096-0.010 1.643l0.001-0.083v82.851l225.28-204.335c6.202-6.056 14.692-9.791 24.055-9.791 0.38 0 0.758 0.006 1.135 0.018l-0.055-0.001c0.081-0.001 0.176-0.001 0.272-0.001 4.906 0 9.613 0.853 13.981 2.419l-0.289-0.090c12.742 3.754 21.885 15.346 21.885 29.074 0 0.252-0.003 0.502-0.009 0.752l0.001-0.037v554.356c-0.706 13.61-10.305 24.793-23.066 27.885l-0.207 0.042z" />
<glyph unicode="&#xe932;" glyph-name="webcam" data-tags="webcam" d="M503.71 250.331c183.832 0 333.044 166.278 333.044 371.078s-149.211 370.59-333.044 370.59-333.044-166.278-333.044-371.078 149.211-370.59 333.044-370.59zM503.71 810.118c95.021-5.708 169.92-84.164 169.92-180.113 0-3.195-0.083-6.37-0.247-9.524l0.018 0.442c0.146-2.713 0.229-5.888 0.229-9.083 0-95.949-74.899-174.405-169.42-180.089l-0.501-0.024c-95.021 5.708-169.92 84.164-169.92 180.113 0 3.195 0.083 6.37 0.247 9.524l-0.018-0.442c-0.146 2.713-0.229 5.888-0.229 9.083 0 95.949 74.899 174.405 169.42 180.089l0.501 0.024zM503.71 510.72c56.189 3.128 100.569 49.454 100.569 106.146 0 1.769-0.043 3.529-0.129 5.277l0.010-0.246c0.075 1.495 0.118 3.245 0.118 5.006 0 56.594-44.43 102.811-100.313 105.673l-0.255 0.010c-55.92-3.127-100.082-49.235-100.082-105.658 0-1.77 0.043-3.529 0.129-5.278l-0.010 0.246c-0.077-1.51-0.12-3.279-0.12-5.058 0-56.521 44.112-102.739 99.786-106.105l0.296-0.014zM472.99 693.090c17.017-2.104 30.061-16.473 30.061-33.89s-13.044-31.786-29.895-33.873l-0.166-0.017c-17.017 2.104-30.061 16.473-30.061 33.89s13.044 31.786 29.895 33.873l0.166 0.017zM689.006 90.392h-372.053c-54.772-4.123-97.65-49.577-97.65-105.046 0-1.814 0.046-3.617 0.136-5.408l-0.010 0.251v-24.869h568.564v24.869c0.077 1.511 0.122 3.28 0.122 5.060 0 55.982-43.676 101.764-98.812 105.128l-0.296 0.014zM405.211 139.154h195.048v65.341h-195.048z" />
<glyph unicode="&#xe933;" glyph-name="zoom-in" data-tags="zoom-in" d="M1005.568 289.536c0 29.267-23.725 52.992-52.992 52.992s-52.992-23.725-52.992-52.992v0-110.592l-213.504 204.8c-9.712 9.238-22.88 14.921-37.376 14.921s-27.664-5.683-37.399-14.943l0.023 0.021c-9.050-9.228-14.636-21.882-14.636-35.84s5.586-26.612 14.644-35.848l-0.008 0.008 212.48-204.8h-114.688c-28.277 0-51.2-22.923-51.2-51.2s22.923-51.2 51.2-51.2v0h239.616c0.782-0.041 1.697-0.064 2.618-0.064 28.813 0 52.332 22.667 53.697 51.141l0.005 0.123s0 0 0 3.072v230.4zM318.976 383.744l-213.504-204.8v110.592c0 28.277-22.923 51.2-51.2 51.2v0c-28.277 0-51.2-22.923-51.2-51.2v0-227.328s0 0 0-3.072v0c1.37-28.597 24.889-51.264 53.702-51.264 0.921 0 1.836 0.023 2.746 0.069l-0.128-0.005h237.056c28.277 0 51.2 22.923 51.2 51.2s-22.923 51.2-51.2 51.2v0h-114.688l212.48 204.8c9.050 9.228 14.636 21.882 14.636 35.84s-5.586 26.612-14.644 35.848l0.008-0.008c-9.537 8.499-22.181 13.693-36.038 13.693-15.414 0-29.327-6.426-39.207-16.745l-0.019-0.020zM686.080 563.968l213.504 204.8v-110.592c0-29.267 23.725-52.992 52.992-52.992s52.992 23.725 52.992 52.992v0 226.816s0 0 0 3.072v1.536c-1.37 28.597-24.889 51.264-53.702 51.264-0.921 0-1.836-0.023-2.746-0.069l0.128 0.005h-240.128c-1.536 0.163-3.317 0.257-5.121 0.257-28.277 0-51.2-22.923-51.2-51.2 0-0.090 0-0.18 0.001-0.271v0.014c1.37-28.597 24.889-51.264 53.702-51.264 0.921 0 1.836 0.023 2.746 0.069l-0.128-0.005h114.688l-211.968-204.8c-9.050-9.228-14.636-21.882-14.636-35.84s5.586-26.612 14.644-35.848l-0.008 0.008c9.536-8.494 22.176-13.684 36.029-13.684 14.905 0 28.407 6.009 38.215 15.736l-0.004-0.004zM181.76 838.4h114.176c0.782-0.041 1.697-0.064 2.618-0.064 28.813 0 52.332 22.667 53.697 51.141l0.005 0.123c-1.37 28.597-24.889 51.264-53.702 51.264-0.921 0-1.836-0.023-2.746-0.069l0.128 0.005h-239.616c-0.782 0.041-1.697 0.064-2.618 0.064-28.813 0-52.332-22.667-53.697-51.141l-0.005-0.123s0 0 0-3.072v-228.864c0-28.277 22.923-51.2 51.2-51.2v0c28.277 0 51.2 22.923 51.2 51.2v0 111.104l213.504-204.8c9.712-9.238 22.88-14.921 37.376-14.921s27.664 5.683 37.399 14.943l-0.023-0.021c9.050 9.228 14.636 21.882 14.636 35.84s-5.586 26.612-14.644 35.848l0.008-0.008z" />
<glyph unicode="&#xe934;" glyph-name="zoom-out" data-tags="zoom-out" d="M599.771 104.046c0-28.681 23.25-51.931 51.931-51.931s51.931 23.25 51.931 51.931v0 109.227l209.676-202.362c9.507-9.029 22.391-14.582 36.571-14.582s27.064 5.553 36.594 14.604l-0.023-0.022c9.357 8.902 15.177 21.448 15.177 35.352s-5.82 26.45-15.157 35.333l-0.020 0.019-206.263 203.337h112.64c27.604 0 49.981 22.377 49.981 49.981s-22.377 49.981-49.981 49.981v0h-237.47c-0.781 0.041-1.695 0.064-2.614 0.064-27.832 0-50.668-21.393-52.961-48.632l-0.013-0.195c-0.025-0.437-0.039-0.948-0.039-1.463s0.014-1.026 0.042-1.533l-0.003 0.071v-224.305zM88.747 10.91l209.189 202.362v-109.227c0-28.681 23.25-51.931 51.931-51.931s51.931 23.25 51.931 51.931v0 224.305c0.026 0.437 0.041 0.948 0.041 1.463s-0.015 1.026-0.044 1.533l0.003-0.070c-1.048 28.528-24.428 51.258-53.117 51.258-0.869 0-1.734-0.021-2.593-0.062l0.121 0.005h-235.032c-27.604 0-49.981-22.377-49.981-49.981s22.377-49.981 49.981-49.981v0h112.64l-208.701-200.411c-9.357-8.902-15.177-21.448-15.177-35.352s5.82-26.45 15.157-35.333l0.020-0.019c9.564-9.315 22.646-15.060 37.069-15.060 14.176 0 27.055 5.55 36.585 14.595l-0.023-0.022zM913.311 952.99l-209.676-202.362v109.227c0 28.681-23.25 51.931-51.931 51.931s-51.931-23.25-51.931-51.931v0-224.305c-0.027-0.437-0.043-0.948-0.043-1.463s0.016-1.026 0.046-1.532l-0.003 0.070c2.307-27.434 25.142-48.826 52.974-48.826 0.92 0 1.834 0.023 2.742 0.069l-0.127-0.005h235.52c0.916-0.057 1.986-0.089 3.064-0.089 27.743 0 50.476 21.453 52.514 48.676l0.011 0.176c-2.307 27.434-25.142 48.826-52.974 48.826-0.92 0-1.834-0.023-2.742-0.069l0.127 0.005h-110.69l208.701 201.387c9.357 8.902 15.177 21.448 15.177 35.352s-5.82 26.45-15.157 35.333l-0.020 0.019c-9.56 9.72-22.854 15.743-37.554 15.743-14.939 0-28.425-6.22-38.010-16.212l-0.017-0.018zM223.817 680.899h-112.64c-0.635 0.027-1.38 0.043-2.128 0.043-27.824 0-50.655-21.381-52.959-48.609l-0.013-0.195c2.062-27.386 24.788-48.825 52.523-48.825 0.907 0 1.808 0.023 2.704 0.068l-0.126-0.005h235.032c0.916-0.057 1.986-0.089 3.064-0.089 27.743 0 50.476 21.453 52.514 48.676l0.011 0.176c0.031 0.438 0.049 0.948 0.049 1.463s-0.018 1.025-0.053 1.531l0.004-0.068v224.792c0 28.681-23.25 51.931-51.931 51.931s-51.931-23.25-51.931-51.931v0-109.227l-209.189 202.362c-9.536 9.168-22.516 14.815-36.815 14.815s-27.279-5.647-36.833-14.832l0.017 0.017c-9.357-8.902-15.177-21.448-15.177-35.352s5.82-26.45 15.157-35.333l0.020-0.019z" />
<glyph unicode="&#xe935;" glyph-name="a" data-tags="a" d="M251.611 821.333l-251.611-654.385h97.524l78.507 205.775h262.827l78.994-205.775h102.4l-253.074 654.385zM195.048 438.552l73.143 187.733c14.141 39.985 26.331 79.482 37.547 118.491v0c11.215-38.034 21.943-76.556 38.522-119.467l74.606-186.758zM1028.876 333.714c-34.528-14.821-74.714-23.439-116.913-23.439-1.584 0-3.164 0.012-4.742 0.036l0.238-0.003c-2.848-0.184-6.175-0.289-9.527-0.289-86.716 0-157.013 70.297-157.013 157.013 0 3.19 0.095 6.357 0.283 9.499l-0.021-0.433c-0.061 1.664-0.096 3.618-0.096 5.58 0 89.678 72.699 162.377 162.377 162.377 2.95 0 5.881-0.079 8.792-0.234l-0.406 0.017c3.025 0.138 6.571 0.217 10.135 0.217 37.086 0 72.179-8.537 103.42-23.752l-1.402 0.616 21.455 62.903c-34.33 15.11-74.353 23.904-116.43 23.904-0.896 0-1.791-0.004-2.686-0.012l0.136 0.001v92.16h-64.853v-94.11c-120.235-9.897-214.066-109.918-214.066-231.855 0-0.26 0-0.52 0.001-0.779v0.040c-0.111-2.608-0.175-5.669-0.175-8.744 0-58.207 22.714-111.109 59.763-150.325l-0.098 0.105c40.852-37.722 94.556-62.067 153.854-65.792l0.722-0.036v-95.086h64.853v95.086c43.197 1.489 83.716 11.394 120.478 28.116l-1.986-0.809z" />
<glyph unicode="&#xe936;" glyph-name="acroplia-content" data-tags="acroplia-content" d="M316.036 504.521c-20.455 0-37.036-16.58-37.036-37.035s16.582-37.039 37.036-37.039h200.926c20.454 0 37.039 16.585 37.039 37.039s-16.585 37.035-37.039 37.035h-200.926zM316.036 378.398c-20.455 0-37.036-16.585-37.036-37.039s16.582-37.035 37.036-37.035h94.928c20.456 0 37.036 16.58 37.036 37.035s-16.58 37.039-37.036 37.039h-94.928zM230 992h370c55.782 0 101.001-45.263 101.001-101.099v-77.079h103.002c55.778 0 100.996-45.263 100.996-101.099v-643.63c0-55.834-45.218-101.099-100.996-101.099h-370.001c-55.782 0-101.001 45.265-101.001 101.099v77.082h-103c-55.781 0-101 45.261-101 101.099v643.627c0 55.835 45.219 101.099 101 101.099zM701.001 739.75v-309.303h48.964c20.454 0 37.035-16.58 37.035-37.035s-16.58-37.035-37.035-37.035h-48.93l-0.034-109.103c0-55.838-45.218-101.099-101.001-101.099h-193v-77.082c0-14.925 12.088-27.025 27.001-27.025h370.001c14.908 0 26.999 12.1 26.999 27.025v643.63c0 14.927-12.092 27.026-26.999 27.026h-103.002zM203 890.901v-271.266h424v271.266c0 14.926-12.087 27.026-26.999 27.026h-370c-14.912 0-27-12.1-27-27.026zM626.999 247.275v326.316h-424v-326.316c0-14.929 12.088-27.029 27-27.029h370c14.912 0 26.999 12.1 26.999 27.029z" />
<glyph unicode="&#xe937;" glyph-name="add-in-course-map" data-tags="add-in-course-map" d="M0 114.366h439.097v-146.366h-439.097v146.366zM0 406.538h439.097v-146.366h-439.097v146.366zM546.357 270.228h439.097v-146.366h-439.097v146.366zM692.722 416.594h146.366v-439.097h-146.366v439.097zM0 699.269h1024v-146.366h-1024v146.366zM0 992h1024v-146.366h-1024v146.366z" />
<glyph unicode="&#xe938;" glyph-name="arrow-l" data-tags="arrow-l" d="M841.076 739.724l-247.622-252.742 332.8-338.851v-165.702l-495.244 504.553 495.244 505.018v-165.702l-85.178-86.575zM503.156 739.724l-247.622-252.742 332.8-338.851v-165.702l-495.244 504.553 495.244 505.018v-165.702l-85.178-86.575z" />
<glyph unicode="&#xe939;" glyph-name="arrow-lr" data-tags="arrow-lr" d="M655.787 421.12h131.84c-9.21 57.711-36.014 107.972-74.651 146.331l-0.016 0.016c-52.907 52.907-98.987 165.547-53.76 147.2 121.149-50.156 208.301-160.175 225.092-292.161l0.188-1.812h128l-179.2-179.2zM194.987 250.453l-179.2 179.2h128c17.381 134.232 105.387 244.398 224.968 293.093l2.446 0.881c40.659 17.303 87.955 27.361 137.6 27.361s96.941-10.058 139.961-28.247l-2.361 0.886c47.41-19.15 87.865-46.322 121.587-80.2l0.013-0.013-67.84-66.987c-47.455 48.984-113.837 79.388-187.322 79.388-1.345 0-2.687-0.010-4.028-0.030l0.203 0.002c-0.164 0-0.359 0.001-0.554 0.001-133.321 0-244.008-96.907-265.465-224.125l-0.221-1.582h131.84z" />
<glyph unicode="&#xe93a;" glyph-name="arrow-r" data-tags="arrow-r" d="M178.269 234.705l247.622 252.276-247.622 252.742-85.178 86.575v165.702l495.244-505.018-495.244-504.553v165.702l85.178 86.575zM516.189 234.705l247.622 252.276-247.622 252.742-85.178 86.575v165.702l495.244-505.018-495.244-504.553v165.702l85.178 86.575z" />
<glyph unicode="&#xe93b;" glyph-name="audio-off" data-tags="audio off" d="M817.956 501.292l131.683 131.683c3.914 5.241 6.265 11.844 6.265 19.002 0 17.637-14.297 31.934-31.934 31.934-7.453 0-14.308-2.551-19.742-6.832l0.067 0.054-131.683-130.503-131.683 130.503c-5.799 5.799-13.82 9.392-22.669 9.392-17.705 0-32.060-14.356-32.060-32.060 0-8.856 3.586-16.869 9.392-22.669l131.683-131.683-131.683-131.683c-5.799-5.799-9.392-13.82-9.392-22.669 0-17.705 14.356-32.060 32.060-32.060 8.856 0 16.869 3.586 22.669 9.392l131.683 131.683 131.683-131.683c5.799-5.799 13.82-9.392 22.669-9.392 17.705 0 32.060 14.356 32.060 32.060 0 8.856-3.586 16.869-9.392 22.669v0zM491.104 791.077c-5.261 2.778-11.5 4.411-18.125 4.411-9.634 0-18.461-3.456-25.306-9.194l0.059 0.052-132.869-103.691c-6.61 2-14.21 3.158-22.080 3.158-0.136 0-0.275 0-0.41-0.001h-135.212c-0.009 0-0.019 0-0.022 0-43.552 0-78.853-35.301-78.853-78.853 0-0.692 0.011-1.382 0.025-2.074l-0.002 0.099v-236.559c-0.019-0.588-0.022-1.278-0.022-1.97 0-43.552 35.301-78.853 78.853-78.853 0.010 0 0.019 0 0.024 0h136.414c7.618 0.080 14.932 1.224 21.847 3.298l-0.561-0.141 134.839-106.451c6.787-5.686 15.611-9.142 25.248-9.142 6.619 0 12.859 1.633 18.339 4.517l-0.213-0.101c13.885 6.881 23.263 20.954 23.263 37.213 0 0.086 0 0.172-0.001 0.252v-0.015 536.995c-0.439 16.61-10.591 30.74-24.964 36.96l-0.268 0.101z" />
<glyph unicode="&#xe93c;" glyph-name="audio" data-tags="audio" d="M499.628 239.286v0c-0.278-15.059-8.857-28.049-21.337-34.623l-0.219-0.104c-4.761-2.166-10.327-3.429-16.189-3.429-8.939 0-17.184 2.938-23.838 7.893l0.105-0.076-126.144 99.401c-5.505-1.499-11.828-2.366-18.347-2.398h-126.164c-40.999 0.224-74.204 33.283-74.648 74.205v221.601c-0.001 0.121-0.001 0.261-0.001 0.401 0 41.306 33.374 74.819 74.632 75.047h124.971c7.565-0.049 14.833-1.21 21.689-3.337l-0.526 0.14 124.154 97.003c6.549 4.886 14.794 7.82 23.733 7.82 5.862 0 11.428-1.262 16.44-3.529l-0.251 0.1c12.698-6.678 21.278-19.668 21.555-34.691l0.001-0.038zM625.372 398.965l-41.915 41.518c9.876 13.135 15.81 29.722 15.81 47.694 0 19.775-7.19 37.87-19.095 51.814l0.090-0.111 39.922 41.915c22.247-24.809 35.847-57.771 35.847-93.906 0-34.197-12.184-65.551-32.446-89.953l0.188 0.235zM679.664 343.874c34.077 38.393 54.888 89.23 54.888 144.924 0 57.577-22.242 109.961-58.602 149.019l0.125-0.13 39.922 41.915c47.681-50.029 77.020-117.908 77.020-192.641 0-71.838-27.107-137.342-71.652-186.851l0.226 0.254zM821.776 201.762l-39.922 41.915c59.239 64.149 95.566 150.225 95.566 244.785 0 96.411-37.762 184.001-99.307 248.782l0.147-0.158 39.922 41.915c72.078-75.444 116.442-177.902 116.442-290.729 0-110.977-42.926-211.931-113.079-287.161l0.233 0.249z" />
<glyph unicode="&#xe93d;" glyph-name="full-view" data-tags="full-view" horiz-adv-x="1019" d="M0 992h1019.177v-153.252h-1019.177v153.252zM0 406.857h1019.177v-153.252h-1019.177v153.252zM0 120.716h1019.177v-153.252h-1019.177v153.252zM0 699.429h1019.177v-153.252h-1019.177v153.252z" />
<glyph unicode="&#xe93e;" glyph-name="enter-text" data-tags="enter-text" horiz-adv-x="1145" d="M900.323 992h-655.313c-135.315 0-245.010-109.695-245.010-245.010v0-533.981c0-135.315 109.695-245.010 245.010-245.010v0h655.313c135.315 0 245.010 109.695 245.010 245.010v0 533.981c0 135.315-109.695 245.010-245.010 245.010v0zM383.341 296.829h-90.267v372.79h-137.159v74.441h363.998v-74.441h-136.572zM578.528 306.793c-9.836-7.729-22.397-12.395-36.048-12.395s-26.212 4.666-36.175 12.491l0.127-0.096c-8.684 8.055-14.102 19.527-14.102 32.264 0 0.609 0.012 1.215 0.037 1.819l-0.003-0.086c-0.030 0.612-0.047 1.33-0.047 2.051 0 12.823 5.418 24.381 14.090 32.509l0.024 0.023c9.647 8.233 22.263 13.243 36.048 13.243s26.401-5.010 36.126-13.307l-0.077 0.064c8.696-8.151 14.115-19.708 14.115-32.532 0-0.721-0.017-1.439-0.051-2.152l0.004 0.101c0.022-0.517 0.034-1.123 0.034-1.732 0-12.738-5.417-24.21-14.074-32.239l-0.028-0.026zM761.406 306.793c-9.836-7.729-22.397-12.395-36.048-12.395s-26.212 4.666-36.175 12.491l0.127-0.096c-8.684 8.055-14.102 19.527-14.102 32.264 0 0.609 0.012 1.215 0.037 1.819l-0.003-0.086c-0.030 0.612-0.047 1.33-0.047 2.051 0 12.823 5.418 24.381 14.090 32.509l0.024 0.023c9.647 8.233 22.263 13.243 36.048 13.243s26.401-5.010 36.126-13.307l-0.077 0.064c8.696-8.151 14.115-19.708 14.115-32.532 0-0.721-0.017-1.439-0.051-2.152l0.004 0.101c0.037-0.675 0.058-1.466 0.058-2.262 0-12.466-5.189-23.72-13.525-31.721l-0.015-0.014zM944.284 306.793c-9.836-7.729-22.397-12.395-36.048-12.395s-26.212 4.666-36.175 12.491l0.127-0.096c-8.684 8.055-14.102 19.527-14.102 32.264 0 0.609 0.012 1.215 0.037 1.819l-0.003-0.086c-0.030 0.612-0.047 1.33-0.047 2.051 0 12.823 5.418 24.381 14.090 32.509l0.024 0.023c9.647 8.233 22.263 13.243 36.048 13.243s26.401-5.010 36.126-13.307l-0.077 0.064c8.696-8.151 14.115-19.708 14.115-32.532 0-0.721-0.017-1.439-0.051-2.152l0.004 0.101c0.022-0.517 0.034-1.123 0.034-1.732 0-12.738-5.417-24.21-14.074-32.239l-0.028-0.026z" />
<glyph unicode="&#xe93f;" glyph-name="flash-cards" data-tags="flash-ards" d="M928.853 710.827c-9.798 10.624-23.727 17.309-39.22 17.493h-39.713v-36.693l2.56-32v-107.093l22.613-263.68c1.351-3.975 2.13-8.553 2.13-13.314 0-16.728-9.627-31.208-23.643-38.201l-0.247-0.112-503.893-50.347-41.813-5.547h581.973c31.462 1.613 56.361 27.515 56.361 59.233 0 0.776-0.015 1.548-0.044 2.317l0.003-0.111v426.667c-0.56 16.054-6.949 30.515-17.103 41.426l0.036-0.039zM287.573 224h52.48l28.16 2.987 104.96 10.667 325.973 32.427c26.966 4.298 47.328 27.387 47.328 55.233 0 2.338-0.144 4.642-0.422 6.905l0.027-0.271-18.773 218.88v100.693l-2.133 27.307v48.64c-1.309 17.616-10.36 32.882-23.725 42.551l-0.168 0.116c-8.377 7.033-19.278 11.305-31.176 11.305-5.801 0-11.365-1.015-16.523-2.878l0.339 0.107-628.907-61.013c-26.956-4.086-47.376-27.095-47.376-54.873 0-2.465 0.161-4.893 0.473-7.273l-0.030 0.28 33.707-393.387c1.323-26.574 21.602-48.028 47.527-51.174l0.26-0.026h11.093l42.667 4.267h13.227l34.987 3.413h22.187z" />
<glyph unicode="&#xe940;" glyph-name="highlight" data-tags="highlight" d="M249.173 176.213c-1.509-2.57-2.401-5.661-2.401-8.96s0.891-6.39 2.447-9.045l-0.046 0.085c3.005-5.143 8.498-8.543 14.786-8.543 0.202 0 0.403 0.004 0.603 0.010l158.691 5.546c19.87 1.089 36.872 12.401 45.934 28.727l0.146 0.286 55.893 98.987-162.133 95.573zM827.307 642.987l-229.973 135.68-134.4-237.653c-4.015-7.108-11.52-11.828-20.128-11.828-4.385 0-8.484 1.225-11.974 3.352l0.102-0.058c-7.077 4.337-11.727 12.028-11.727 20.806 0 4.432 1.185 8.586 3.256 12.165l-0.062-0.117 132.267 237.653-37.973 22.187c-1.476 0.873-3.253 1.389-5.15 1.389-3.814 0-7.142-2.086-8.904-5.179l-0.026-0.050-154.88-276.907c-3.293-5.658-5.237-12.454-5.237-19.703 0-14.397 7.667-27.003 19.141-33.957l0.177-0.099 11.947-6.827c-9.044-2.662-16.397-8.626-20.816-16.465l-0.091-0.175c-3.003-5.167-4.775-11.37-4.775-17.988 0-13.125 6.972-24.622 17.415-30.988l0.16-0.091 192.853-113.92c5.002-2.98 11.031-4.741 17.47-4.741 13.002 0 24.327 7.18 30.226 17.791l0.090 0.176c2.894 5.092 4.6 11.186 4.6 17.678 0 3.271-0.433 6.441-1.245 9.456l0.058-0.254 11.947-7.253c5.529-3.325 12.203-5.292 19.336-5.292 14.479 0 27.065 8.103 33.471 20.023l0.099 0.203 156.587 276.907c0.781 1.446 1.241 3.166 1.241 4.993 0 3.824-2.012 7.178-5.036 9.061l-0.045 0.026z" />
<glyph unicode="&#xe941;" glyph-name="subtitle" data-tags="subtitle" d="M552.533 251.307c-7.029 0.905-13.377 3.168-18.998 6.524l0.224-0.124c-5.558 3.527-9.94 8.457-12.712 14.3l-0.088 0.207c-2.999 6.828-4.744 14.788-4.744 23.155 0 0.86 0.018 1.715 0.055 2.566l-0.004-0.121v352.853c-0.024 0.666-0.038 1.449-0.038 2.235 0 8.876 1.738 17.347 4.891 25.090l-0.16-0.445c2.658 6.458 6.907 11.804 12.27 15.715l0.103 0.072c5.339 3.596 11.678 6.152 18.511 7.22l0.262 0.034c3.45 0.303 7.465 0.476 11.52 0.476s8.070-0.173 12.037-0.512l-0.517 0.036h8.96v32.853h-208.64v-30.293h8.533c3.45 0.304 7.465 0.478 11.52 0.478s8.070-0.174 12.036-0.514l-0.516 0.036c7.592-1.723 14.21-5.148 19.686-9.863l-0.059 0.050c5.587-3.984 9.966-9.323 12.706-15.546l0.094-0.241c2.76-6.935 4.361-14.971 4.361-23.381 0-1.231-0.034-2.454-0.102-3.668l0.008 0.169v-145.493h-233.387v145.493c-0.242 2.112-0.381 4.559-0.381 7.038 0 7.404 1.233 14.52 3.504 21.154l-0.137-0.459c3.42 6.277 8.354 11.349 14.327 14.836l0.18 0.097c5.327 3.635 11.675 6.197 18.525 7.223l0.248 0.031c3.386 0.29 7.327 0.456 11.307 0.456s7.921-0.166 11.816-0.49l-0.51 0.034h9.387v32.853h-208.64v-30.293h8.96c3.384 0.27 7.328 0.424 11.307 0.424s7.922-0.154 11.824-0.456l-0.517 0.032c7.265-1.891 13.571-5.289 18.83-9.861l-0.056 0.048c5.517-3.736 9.882-8.786 12.705-14.712l0.095-0.222c2.999-6.828 4.744-14.788 4.744-23.155 0-0.86-0.018-1.715-0.055-2.566l0.004 0.121v-352.853c0.027-0.717 0.043-1.559 0.043-2.404 0-8.965-1.739-17.524-4.898-25.358l0.162 0.456c-2.793-6.486-7.182-11.835-12.684-15.709l-0.116-0.078c-5.342-3.583-11.68-6.137-18.507-7.219l-0.266-0.035c-3.45-0.295-7.465-0.464-11.52-0.464s-8.070 0.168-12.040 0.498l0.52-0.035h-8.533v-30.293h208.64v30.293h-9.387c-3.385-0.283-7.327-0.444-11.307-0.444s-7.921 0.161-11.819 0.477l0.513-0.033c-7.097 1.072-13.442 3.631-18.933 7.356l0.16-0.102c-5.571 3.999-9.947 9.333-12.704 15.545l-0.096 0.242c-3.006 7.261-4.752 15.693-4.752 24.533 0 0.975 0.021 1.946 0.063 2.911l-0.005-0.137v170.667h233.387v-170.667c0.030-0.734 0.046-1.595 0.046-2.46 0-8.8-1.741-17.193-4.898-24.854l0.158 0.434c-2.853-6.453-7.229-11.787-12.687-15.709l-0.113-0.077c-5.299-3.721-11.665-6.297-18.553-7.229l-0.22-0.024c-3.449-0.29-7.465-0.455-11.52-0.455s-8.070 0.165-12.041 0.49l0.521-0.034h-8.96v-30.293h208.64v29.867h-8.96c-7.982 0.002-15.818 0.622-23.464 1.816l0.851-0.109zM733.013 276.907v0l42.667 37.973c107.947 103.68 176.213 180.053 176.213 274.773 0.1 2.007 0.157 4.358 0.157 6.723 0 79.411-64.375 143.787-143.787 143.787-5.165 0-10.266-0.272-15.29-0.803l0.626 0.054c-0.551 0.005-1.202 0.008-1.853 0.008-54.609 0-104.663-19.504-143.575-51.927l0.361 0.293 22.187-48.64c29.055 25.385 66.946 41.311 108.522 42.66l0.278 0.007c3.212 0.401 6.93 0.629 10.701 0.629 50.427 0 91.307-40.879 91.307-91.307 0-3.227-0.167-6.415-0.494-9.555l0.033 0.393c0-77.227-59.733-143.36-190.293-267.52l-54.187-52.907v-42.667h326.4v58.027z" />
<glyph unicode="&#xe942;" glyph-name="title" data-tags="title" d="M640 216.747c-7.986 1.013-15.202 3.58-21.587 7.394l0.253-0.14c-6.334 4.034-11.31 9.696-14.408 16.402l-0.099 0.238c-3.276 7.601-5.181 16.451-5.181 25.745 0 0.999 0.022 1.994 0.066 2.982l-0.005-0.141v399.787c-0.044 0.958-0.068 2.082-0.068 3.211 0 9.9 1.905 19.354 5.368 28.018l-0.18-0.509c3.16 7.128 7.967 13.031 13.959 17.409l0.121 0.084c6.070 4.051 13.28 6.912 21.046 8.071l0.288 0.035c3.898 0.343 8.433 0.539 13.013 0.539s9.116-0.196 13.597-0.579l-0.584 0.040h10.24v36.267h-234.24v-34.133h10.667c3.898 0.344 8.433 0.54 13.013 0.54s9.115-0.196 13.597-0.581l-0.583 0.040c7.906-1.2 14.972-4.061 21.083-8.22l-0.176 0.113c6.113-4.463 10.92-10.365 13.972-17.222l0.108-0.271c3.537-8.303 5.593-17.962 5.593-28.101 0-0.921-0.017-1.838-0.051-2.751l0.004 0.132v-164.267h-262.827v162.133c-0.053 1.044-0.083 2.268-0.083 3.498 0 9.802 1.911 19.159 5.38 27.716l-0.177-0.495c3.16 7.128 7.967 13.031 13.959 17.409l0.121 0.084c6.054 4.104 13.275 6.973 21.064 8.075l0.269 0.031c3.833 0.329 8.295 0.517 12.8 0.517s8.967-0.188 13.377-0.556l-0.577 0.039h10.667v36.267h-236.373v-34.133h10.24c3.832 0.306 8.295 0.481 12.8 0.481s8.968-0.175 13.385-0.517l-0.585 0.036c8.023-1.041 15.245-3.763 21.541-7.805l-0.207 0.125c6.232-4.31 11.173-10.071 14.396-16.81l0.111-0.257c3.287-7.613 5.198-16.477 5.198-25.787 0-1.135-0.028-2.263-0.085-3.384l0.006 0.158v-398.933c0.039-0.915 0.062-1.989 0.062-3.068 0-9.948-1.902-19.452-5.362-28.168l0.181 0.516c-3.16-7.128-7.967-13.031-13.959-17.409l-0.121-0.084c-6.077-4.025-13.282-6.882-21.036-8.069l-0.297-0.037c-3.897-0.334-8.433-0.524-13.013-0.524s-9.116 0.19-13.6 0.564l0.587-0.039h-10.24v-37.12h235.947v34.133h-10.667c-3.833-0.321-8.295-0.503-12.8-0.503s-8.967 0.183-13.38 0.541l0.58-0.038c-8.056 1.165-15.271 4.030-21.519 8.224l0.186-0.117c-6.113 4.463-10.92 10.365-13.972 17.222l-0.108 0.271c-3.12 7.868-4.93 16.984-4.93 26.523 0 2.078 0.086 4.136 0.254 6.17l-0.018-0.267v190.72h263.68v-190.72c0.053-1.044 0.083-2.268 0.083-3.498 0-9.802-1.911-19.159-5.38-27.716l0.177 0.495c-3.16-7.128-7.967-13.031-13.959-17.409l-0.121-0.084c-5.931-4.059-12.999-6.922-20.629-8.072l-0.278-0.034c-3.897-0.327-8.433-0.514-13.013-0.514s-9.117 0.186-13.603 0.552l0.59-0.039h-10.667v-35.84h235.947v34.133h-10.24c-1.994-0.083-4.335-0.131-6.686-0.131-7.721 0-15.323 0.513-22.773 1.506l0.872-0.095zM884.907 770.133l-128.853-69.12 15.787-60.587 102.4 55.467h1.707v-514.987h76.8v589.227h-67.84z" />
<glyph unicode="&#xe943;" glyph-name="list-number" data-tags="list number" horiz-adv-x="1267" d="M407.806 877.456h799.051c0.422-0.011 0.918-0.017 1.416-0.017 31.671 0 57.479 25.102 58.613 56.496l0.003 0.104c-0.38 32.102-26.493 57.979-58.648 57.979-0.487 0-0.972-0.006-1.456-0.018l0.072 0.001h-799.051c-1.243 0.094-2.692 0.147-4.153 0.147-31.959 0-57.948-25.561-58.638-57.355l-0.001-0.064c0.691-31.858 26.68-57.419 58.639-57.419 1.461 0 2.91 0.053 4.345 0.159l-0.192-0.011zM407.806 650.437h449.208c0.422-0.011 0.918-0.017 1.416-0.017 31.671 0 57.479 25.102 58.613 56.496l0.003 0.104c-1.138 31.497-26.946 56.599-58.616 56.599-0.498 0-0.994-0.006-1.489-0.019l0.073 0.001h-449.208c-1.248 0.095-2.704 0.149-4.172 0.149-31.717 0-57.554-25.175-58.618-56.633l-0.003-0.097c1.067-31.555 26.904-56.731 58.621-56.731 1.468 0 2.923 0.054 4.364 0.16l-0.193-0.011zM1206.857 536.582h-799.051c-31.44 0-56.927-25.487-56.927-56.927s25.487-56.927 56.927-56.927v0h799.051c31.44 0 56.927 25.487 56.927 56.927s-25.487 56.927-56.927 56.927v0zM1206.857 81.854h-799.051c-31.44 0-56.927-25.487-56.927-56.927s25.487-56.927 56.927-56.927v0h799.051c31.44 0 56.927 25.487 56.927 56.927s-25.487 56.927-56.927 56.927v0zM407.806 195.709h449.208c31.44 0 56.927 25.487 56.927 56.927s-25.487 56.927-56.927 56.927v0h-449.208c-31.44 0-56.927-25.487-56.927-56.927s25.487-56.927 56.927-56.927v0zM69.003 894.706v-142.146c0.683-15.081 13.076-27.049 28.264-27.049 0.982 0 1.952 0.050 2.907 0.148l-0.12-0.010c0.64-0.050 1.386-0.079 2.139-0.079 15.305 0 27.839 11.864 28.907 26.898l0.005 0.093v212.528c-0.385 14.944-12.591 26.911-27.592 26.911-0.003 0-0.006 0-0.009 0v0c-0.003 0-0.006 0-0.010 0-9.914 0-18.693-4.863-24.081-12.333l-0.060-0.088-26.221-35.191c-5.534-5.523-9.124-12.993-9.655-21.294l-0.005-0.097c0-0.040 0-0.087 0-0.135 0-14.653 11.14-26.704 25.412-28.146l0.119-0.010zM30.361 346.825h117.305c15.815 0 28.636 12.821 28.636 28.636s-12.821 28.636-28.636 28.636h-84.873c0 8.28 20.701 22.081 37.261 33.121 33.121 22.081 73.833 49.682 73.833 96.604-0.671 44.073-36.555 79.543-80.724 79.543-1.945 0-3.875-0.069-5.786-0.204l0.257 0.015c-2.137 0.216-4.619 0.339-7.13 0.339-39.472 0-71.843-30.407-74.966-69.075l-0.017-0.266c-0.438-1.889-0.69-4.057-0.69-6.284 0-16.006 12.975-28.981 28.981-28.981 0.728 0 1.45 0.027 2.165 0.080l-0.096-0.006c1.245-0.189 2.68-0.297 4.142-0.297 16.006 0 28.981 12.975 28.981 28.981 0 0.105-0.001 0.209-0.002 0.313v-0.016c0 8.28 0 17.941 20.011 17.941 0.829 0.11 1.788 0.173 2.761 0.173 12.195 0 22.081-9.886 22.081-22.081 0-0.061 0-0.122-0.001-0.183v0.009c0-17.941-24.841-35.191-48.302-51.062s-65.553-42.782-65.553-78.663v-33.121c2.372-13.821 14.266-24.205 28.585-24.205 0.625 0 1.245 0.020 1.86 0.059l-0.084-0.004zM168.367 161.208c0.055 1.031 0.086 2.238 0.086 3.452 0 38.109-30.894 69.003-69.003 69.003-3.438 0-6.818-0.251-10.122-0.737l0.375 0.045c-3.144 0.474-6.772 0.745-10.463 0.745-39.34 0-71.494-30.767-73.711-69.552l-0.009-0.196c-0.096-0.873-0.15-1.885-0.15-2.91 0-15.625 12.666-28.291 28.291-28.291 1.025 0 2.037 0.055 3.034 0.161l-0.124-0.011c1.295-0.21 2.788-0.33 4.309-0.33 15.625 0 28.291 12.666 28.291 28.291 0 1.089-0.061 2.163-0.181 3.22l0.012-0.129c0 6.9 0 14.491 22.081 14.491s19.321 0 19.321-21.391-4.14-20.701-20.701-20.701c-15.434 0-27.946-12.512-27.946-27.946s12.512-27.946 27.946-27.946v0c22.081 0 26.221-8.28 26.221-22.081v-6.21c0-23.461-9.66-27.601-26.911-27.601s-26.221 11.73-26.221 15.181c0.001 0.064 0.001 0.14 0.001 0.217 0 15.244-12.357 27.601-27.601 27.601-1.217 0-2.415-0.079-3.59-0.231l0.139 0.015c-0.855 0.094-1.846 0.147-2.849 0.147-15.244 0-27.601-12.357-27.601-27.601 0-0.781 0.032-1.553 0.096-2.318l-0.007 0.1c4.341-39.337 37.394-69.66 77.529-69.66 3.563 0 7.070 0.239 10.506 0.702l-0.401-0.044c2.747-0.337 5.927-0.529 9.152-0.529 43.826 0 79.353 35.528 79.353 79.353 0 1.886-0.066 3.756-0.195 5.609l0.014-0.25v6.21c0.044 0.924 0.070 2.007 0.070 3.096 0 19.331-7.949 36.806-20.758 49.333l-0.013 0.012c8.398 12.874 13.392 28.632 13.392 45.558 0 2.423-0.102 4.823-0.303 7.194l0.021-0.309z" />
<glyph unicode="&#xe944;" glyph-name="arrow-down" data-tags="arrow-down" d="M823.040 725.333l96-97.707-407.040-415.147-407.040 415.147 96 97.707 311.040-317.013z" />
<glyph unicode="&#xe945;" glyph-name="arrow-up" data-tags="arrow-down" d="M200.96 234.667l-96 97.707 407.040 415.147 407.040-415.147-96-97.707-311.040 317.013z" />
<glyph unicode="&#xe946;" glyph-name="drag-and-drop" data-tags="drag and drop" d="M805.12 519.253h-586.24s-2.133 0-2.133-4.693v-108.8c0-2.133 0-4.693 2.133-4.693h586.24s2.133 0 2.133 4.693v108.8c0 2.56-0.853 4.693-2.133 4.693zM461.227 693.333h100.267v115.2h142.507l-192 183.467-193.28-183.467h142.507zM559.36 264.107h-98.56v-114.347h-139.947l191.147-181.76 189.44 180.053h-142.080z" />
<glyph unicode="&#xe947;" glyph-name="sound-min" data-tags="sound min" d="M536.32 209.067v0c-0.391-16.513-10.105-30.667-24.066-37.436l-0.254-0.111c-5.498-2.637-11.945-4.203-18.752-4.267h-0.022c-0.087-0.001-0.19-0.001-0.293-0.001-9.901 0-19.015 3.373-26.255 9.032l0.094-0.071-140.373 107.52c-6.141-1.604-13.197-2.537-20.466-2.56h-140.387c-0.764-0.025-1.662-0.040-2.564-0.040-45.428 0-82.309 36.597-82.769 81.916v238.551c0.212 45.318 36.998 81.974 82.346 81.974 1.051 0 2.097-0.020 3.138-0.059l-0.15 0.004h140.8c8.388-0.079 16.454-1.32 24.088-3.57l-0.622 0.157 136.96 104.96c7.178 5.674 16.359 9.101 26.34 9.101 6.879 0 13.378-1.628 19.132-4.52l-0.245 0.112c14.215-6.879 23.929-21.034 24.319-37.496l0.001-0.051zM676.693 379.733l-46.933 46.080c10.866 14.17 17.413 32.149 17.413 51.658 0 21.413-7.887 40.984-20.914 55.966l0.089-0.104 46.933 45.653c24.785-26.525 40.003-62.262 40.003-101.554 0-37.27-13.692-71.341-36.321-97.459l0.158 0.186z" />
<glyph unicode="&#xe948;" glyph-name="check" data-tags="check" d="M384.427 374.187l-171.947 177.067-104.533-103.68 275.627-281.6 532.48 523.52-103.68 104.533-427.947-419.84z" />
<glyph unicode="&#xe949;" glyph-name="clock" data-tags="clock" d="M512 885.333c-223.859 0-405.333-181.474-405.333-405.333s181.474-405.333 405.333-405.333c223.859 0 405.333 181.474 405.333 405.333v0c-0.243 223.762-181.572 405.091-405.31 405.333h-0.023zM512 160c-176.259 0.001-319.146 142.887-319.146 319.147s142.887 319.147 319.147 319.147c175.96 0 318.66-142.401 319.145-318.247v-0.046c-0.242-176.162-142.984-318.904-319.123-319.147h-0.024zM725.333 491.52h-184.32v220.16c0 18.498-14.995 33.493-33.493 33.493s-33.493-14.995-33.493-33.493v0-252.587c0-18.38 14.9-33.28 33.28-33.28v0h218.027c18.38 0 33.28 14.9 33.28 33.28s-14.9 33.28-33.28 33.28v0z" />
<glyph unicode="&#xe94a;" glyph-name="hint" data-tags="hint" d="M629.333 202.667h-189.013c-15.435 0-27.947-12.512-27.947-27.947s12.512-27.947 27.947-27.947h189.44c15.435 0 27.947 12.512 27.947 27.947s-12.512 27.947-27.947 27.947v0zM629.333 123.733h-189.013c-15.435 0-27.947-12.512-27.947-27.947s12.512-27.947 27.947-27.947h189.44c15.435 0 27.947 12.512 27.947 27.947s-12.512 27.947-27.947 27.947v0zM534.613 899.413c-0.637 0.005-1.391 0.008-2.145 0.008-154.391 0-279.718-124.435-281.161-278.485l-0.001-0.137c0.167-97.342 50.691-182.847 126.906-231.874l1.094-0.659c7.058-4.882 11.778-12.714 12.369-21.674l0.005-0.086v-80.213c0.241-30.921 25.363-55.895 56.318-55.895 0.151 0 0.301 0.001 0.451 0.002h170.644c0.127-0.001 0.278-0.002 0.428-0.002 30.955 0 56.078 24.974 56.318 55.872v80.236c0.596 9.046 5.315 16.878 12.278 21.698l0.095 0.062c77.309 49.686 127.833 135.191 128 232.508v0.025c-1.448 154.183-126.774 278.614-281.162 278.614-0.154 0-0.308 0-0.462 0h0.024z" />
<glyph unicode="&#xe94b;" glyph-name="sound-average" data-tags="sound average" d="M540.16 209.493v0c-0.049-16.849-9.857-31.395-24.066-38.289l-0.254-0.111c-5.627-2.684-12.229-4.255-19.196-4.267h-0.004c-0.212-0.004-0.462-0.006-0.713-0.006-9.904 0-19.020 3.375-26.261 9.037l0.094-0.071-142.507 109.653c-6.141-1.604-13.197-2.537-20.466-2.56h-142.521c-0.008 0-0.017 0-0.027 0-46.378 0-84.115 36.999-85.304 83.090l-0.002 0.11v241.92c1.424 46.014 39.067 82.773 85.295 82.773 0.014 0 0.027 0 0.041 0h142.505c8.531-0.060 16.747-1.302 24.527-3.572l-0.633 0.158 138.667 107.093c7.207 5.753 16.45 9.231 26.505 9.231 6.982 0 13.572-1.677 19.389-4.65l-0.241 0.112c14.463-7.005 24.271-21.551 24.32-38.393v-0.007zM682.667 384.427l-47.787 46.507c11.176 14.291 17.92 32.517 17.92 52.319 0 0.057 0 0.113 0 0.17v-0.009c0 0.090 0.001 0.197 0.001 0.303 0 21.684-8.088 41.48-21.412 56.534l0.078-0.090 47.36 46.507c25.275-26.935 40.801-63.279 40.801-103.25 0-37.954-13.999-72.639-37.116-99.172l0.155 0.181zM744.533 323.84c38.739 41.729 62.51 97.823 62.51 159.469 0 63.608-25.308 121.305-66.403 163.572l0.053-0.055 46.933 46.507c53.205-53.903 86.067-127.998 86.067-209.769 0-79.83-31.32-152.345-82.343-205.927l0.116 0.123z" />
<glyph unicode="&#xe94c;" glyph-name="globus" data-tags="globus" d="M520.96 824.747c-0.507 0.003-1.107 0.004-1.707 0.004-184.507 0-334.080-149.573-334.080-334.080s149.573-334.080 334.080-334.080c184.506 0 334.078 149.57 334.080 334.076v0c-0.238 183.812-148.697 332.871-332.258 334.079l-0.115 0.001zM520.96 212.053c-76.042 0.027-144.926 30.655-195.010 80.236l0.023-0.023v45.227c0.684 12.168 5.414 23.114 12.853 31.635l-0.053-0.062c8.635 10.262 14.146 23.407 14.926 37.81l0.007 0.163c0 26.453-23.893 29.44-36.693 30.72-0.307-0.009-0.669-0.014-1.031-0.014-8.227 0-15.857 2.559-22.136 6.924l0.128-0.084c-4.339 5.208-8.177 11.093-11.288 17.4l-0.232 0.52c-8.8 18.764-22.225 34.107-38.842 44.975l-0.411 0.252c9.469 146.055 130.17 260.954 277.744 261.12h22.63c-1.789-0.915-3.326-1.907-4.754-3.033l0.061 0.046c-2.59-2.555-4.195-6.103-4.195-10.027s1.605-7.472 4.193-10.025l0.002-0.002c2.248-2.004 4.218-4.245 5.893-6.701l0.081-0.125s-2.987-5.12-17.067-12.373c-25.999-12.203-45.584-34.435-53.996-61.58l-0.19-0.713c-0.361-1.864-0.568-4.008-0.568-6.2 0-9.404 3.803-17.92 9.955-24.094l-0.001 0.001c2.496-2.568 5.958-4.186 9.798-4.266h0.015c18.005 0.87 34.644 5.986 49.166 14.36l-0.526-0.28c13.998 8.059 30.675 13.050 48.465 13.649l0.175 0.005c54.613 0 97.28-12.373 97.28-27.733 0-5.547 0-7.68-2.56-8.107s-30.293-6.4-50.773-5.973h-16.64c-1.476-0.128-3.193-0.201-4.927-0.201-9.7 0-18.868 2.28-26.997 6.333l0.351-0.159c-9.986 5.166-21.797 8.195-34.316 8.195-1.286 0-2.565-0.032-3.836-0.095l0.179 0.007c-1.813 0.087-3.937 0.137-6.073 0.137-33.418 0-63.996-12.158-87.553-32.292l0.185 0.155c-12.604-13.758-20.328-32.168-20.328-52.381 0-5.472 0.566-10.811 1.642-15.963l-0.088 0.505c0-4.267 0-8.107 0-11.52 0-27.307 28.16-42.667 55.893-42.667 4.364 0.381 9.442 0.598 14.57 0.598 25.588 0 49.914-5.401 71.9-15.126l-1.137 0.449c0.185-12.786 3.317-24.798 8.745-35.444l-0.211 0.457c3.249-6.062 5.269-13.219 5.544-20.821l0.002-0.086c0.042-0.408 0.066-0.881 0.066-1.36 0-3.778-1.488-7.209-3.911-9.738l0.005 0.005c-6.424-7.426-10.337-17.178-10.337-27.843 0-1.012 0.035-2.016 0.105-3.011l-0.007 0.134c3.894-25.363 15.208-47.577 31.625-64.908l-0.052 0.055c2.534-2.825 6.17-4.617 10.227-4.693h3.426c8.107 0 80.213 21.76 80.213 69.12-0.095 0.843-0.15 1.82-0.15 2.81 0 9.094 4.589 17.117 11.578 21.878l0.092 0.059c9.749 6.879 16.075 18.046 16.213 30.698v0.022c8.193 23.923 21.2 44.353 37.965 61.005l0.009 0.009c2.722 2.573 4.416 6.209 4.416 10.24s-1.694 7.667-4.41 10.234l-0.007 0.006c-22.179 17.089-39.94 38.811-52.018 63.794l-0.462 1.060c7.018-3.703 13.053-8.105 18.368-13.248l-0.022 0.021c4.14-4.008 9.79-6.479 16.018-6.479 0.67 0 1.333 0.029 1.988 0.085l-0.085-0.006c14.766 2.834 27.578 9.8 37.555 19.635l-0.009-0.008c6.491-22.38 10.224-48.088 10.224-74.668 0-153.403-124.357-277.76-277.76-277.76-0.295 0-0.589 0-0.883 0.001h0.046z" />
<glyph unicode="&#xe94d;" glyph-name="progress-panel" data-tags="progress-panel" d="M869.547 732.587h-715.093c-39.984-0.299-76.118-16.541-102.407-42.674l0.007 0.007h-2.987v-2.133c-25.994-26.462-42.040-62.77-42.040-102.827s16.046-76.365 42.061-102.848l-0.021 0.021v-2.133h2.56c26.282-26.126 62.416-42.367 102.343-42.666h715.577c81.296 0 147.2 65.904 147.2 147.2s-65.904 147.2-147.2 147.2v0zM869.547 522.24h-485.547v128h485.547c58.027 0 63.147-5.12 63.147-63.147s-4.693-64.427-63.147-64.427zM233.387 227.413h302.080l-151.467 155.733z" />
<glyph unicode="&#xe94e;" glyph-name="indent-left" data-tags="indent left" d="M909.653 270.080h-795.307c-0.096 0.002-0.209 0.004-0.322 0.004-3.903 0-7.424-1.638-9.913-4.264l-0.006-0.006c-2.64-2.562-4.278-6.144-4.278-10.108 0-0.197 0.004-0.392 0.012-0.587l-0.001 0.028v-90.027c-0.003-0.115-0.005-0.25-0.005-0.386 0-4.017 1.633-7.653 4.271-10.28l0.001-0.001c2.494-2.632 6.015-4.27 9.918-4.27 0.113 0 0.226 0.001 0.338 0.004h795.29c0.042 0 0.092-0.001 0.143-0.001 3.959 0 7.536 1.634 10.094 4.264l0.003 0.003c2.639 2.627 4.272 6.263 4.272 10.281 0 0.136-0.002 0.271-0.006 0.406v-0.020 90.027c0.003 0.115 0.005 0.25 0.005 0.386 0 4.017-1.633 7.653-4.271 10.28l-0.001 0.001c-2.561 2.633-6.139 4.267-10.097 4.267-0.050 0-0.1 0-0.15-0.001h0.008zM261.547 329.813c0.042 0 0.092-0.001 0.143-0.001 3.959 0 7.536 1.634 10.094 4.264l0.003 0.003c2.64 2.562 4.278 6.144 4.278 10.108 0 0.197-0.004 0.392-0.012 0.587l0.001-0.028v270.080c0.007 0.167 0.011 0.362 0.011 0.559 0 3.964-1.638 7.545-4.274 10.104l-0.003 0.003c-2.561 2.633-6.139 4.267-10.097 4.267-0.050 0-0.1 0-0.15-0.001h0.008c-0.167 0.007-0.362 0.011-0.559 0.011-3.964 0-7.545-1.638-10.104-4.274l-0.003-0.003-132.267-134.827c-2.692-2.826-4.348-6.66-4.348-10.88s1.656-8.054 4.354-10.886l-0.006 0.006 132.693-134.827c2.561-2.633 6.139-4.267 10.097-4.267 0.050 0 0.1 0 0.15 0.001h-0.008zM909.653 628.48h-500.907c-0.042 0-0.092 0.001-0.143 0.001-3.959 0-7.536-1.634-10.094-4.264l-0.003-0.003c-2.639-2.627-4.272-6.263-4.272-10.281 0-0.136 0.002-0.271 0.006-0.406v0.020-90.027c-0.003-0.115-0.005-0.25-0.005-0.386 0-4.017 1.633-7.653 4.271-10.28l0.001-0.001c2.619-2.628 6.238-4.257 10.238-4.267h500.909c0.042 0 0.092-0.001 0.143-0.001 3.959 0 7.536 1.634 10.094 4.264l0.003 0.003c2.639 2.627 4.272 6.263 4.272 10.281 0 0.136-0.002 0.271-0.006 0.406v-0.020 91.307c0.003 0.115 0.005 0.25 0.005 0.386 0 4.017-1.633 7.653-4.271 10.28l-0.001 0.001c-2.534 2.825-6.17 4.617-10.227 4.693h-0.013zM909.653 448.427h-500.907c-0.042 0-0.092 0.001-0.143 0.001-3.959 0-7.536-1.634-10.094-4.264l-0.003-0.003c-2.639-2.627-4.272-6.263-4.272-10.281 0-0.136 0.002-0.271 0.006-0.406v0.020-90.027c-0.003-0.115-0.005-0.25-0.005-0.386 0-4.017 1.633-7.653 4.271-10.28l0.001-0.001c2.619-2.628 6.238-4.257 10.238-4.267h500.909c0.042 0 0.092-0.001 0.143-0.001 3.959 0 7.536 1.634 10.094 4.264l0.003 0.003c2.639 2.627 4.272 6.263 4.272 10.281 0 0.136-0.002 0.271-0.006 0.406v-0.020 91.733c0.003 0.115 0.005 0.25 0.005 0.386 0 4.017-1.633 7.653-4.271 10.28l-0.001 0.001c-2.561 2.633-6.139 4.267-10.097 4.267-0.050 0-0.1 0-0.15-0.001h0.008zM919.893 803.84c-2.561 2.633-6.139 4.267-10.097 4.267-0.050 0-0.1 0-0.15-0.001h-795.299c-0.096 0.002-0.209 0.004-0.322 0.004-3.903 0-7.424-1.638-9.913-4.264l-0.006-0.006c-2.639-2.627-4.272-6.263-4.272-10.281 0-0.136 0.002-0.271 0.006-0.406v0.020-88.32c-0.003-0.115-0.005-0.25-0.005-0.386 0-4.017 1.633-7.653 4.271-10.28l0.001-0.001c2.494-2.632 6.015-4.27 9.918-4.27 0.113 0 0.226 0.001 0.338 0.004h795.29c0.042 0 0.092-0.001 0.143-0.001 3.959 0 7.536 1.634 10.094 4.264l0.003 0.003c2.639 2.627 4.272 6.263 4.272 10.281 0 0.136-0.002 0.271-0.006 0.406v-0.020 90.027c0.003 0.115 0.005 0.25 0.005 0.386 0 4.017-1.633 7.653-4.271 10.28l-0.001 0.001z" />
<glyph unicode="&#xe94f;" glyph-name="indent-right" data-tags="indent right" d="M113.067 329.813c0.115-0.003 0.25-0.005 0.386-0.005 4.017 0 7.653 1.633 10.28 4.271l0.001 0.001 132.267 135.253c2.601 2.865 4.193 6.687 4.193 10.88s-1.592 8.015-4.205 10.893l0.012-0.013-132.267 135.253c-2.627 2.639-6.263 4.272-10.281 4.272-0.136 0-0.271-0.002-0.406-0.006h0.020c-0.042 0-0.092 0.001-0.143 0.001-3.959 0-7.536-1.634-10.094-4.264l-0.003-0.003c-2.639-2.627-4.272-6.263-4.272-10.281 0-0.136 0.002-0.271 0.006-0.406v0.020-270.933c-0.003-0.115-0.005-0.25-0.005-0.386 0-4.017 1.633-7.653 4.271-10.28l0.001-0.001c2.561-2.633 6.139-4.267 10.097-4.267 0.050 0 0.1 0 0.15 0.001h-0.008zM910.507 269.653h-797.44c-0.042 0-0.092 0.001-0.143 0.001-3.959 0-7.536-1.634-10.094-4.264l-0.003-0.003c-2.639-2.627-4.272-6.263-4.272-10.281 0-0.136 0.002-0.271 0.006-0.406v0.020-90.453c-0.003-0.115-0.005-0.25-0.005-0.386 0-4.017 1.633-7.653 4.271-10.28l0.001-0.001c2.534-2.825 6.17-4.617 10.227-4.693h797.88c4.059 0.13 7.679 1.908 10.231 4.683l0.009 0.010c2.639 2.627 4.272 6.263 4.272 10.281 0 0.136-0.002 0.271-0.006 0.406v-0.020 90.027c0.001 0.064 0.002 0.139 0.002 0.214 0 4.071-1.629 7.761-4.271 10.455l0.002-0.002c-2.534 2.825-6.17 4.617-10.227 4.693h-0.013zM910.507 450.133h-501.76c-0.042 0-0.092 0.001-0.143 0.001-3.959 0-7.536-1.634-10.094-4.264l-0.003-0.003c-2.639-2.627-4.272-6.263-4.272-10.281 0-0.136 0.002-0.271 0.006-0.406v0.020-90.453c-0.003-0.115-0.005-0.25-0.005-0.386 0-4.017 1.633-7.653 4.271-10.28l0.001-0.001c2.561-2.633 6.139-4.267 10.097-4.267 0.050 0 0.1 0 0.15 0.001h502.179c0.042 0 0.092-0.001 0.143-0.001 3.959 0 7.536 1.634 10.094 4.264l0.003 0.003c2.639 2.627 4.272 6.263 4.272 10.281 0 0.136-0.002 0.271-0.006 0.406v-0.020 90.027c0.001 0.064 0.002 0.139 0.002 0.214 0 4.071-1.629 7.761-4.271 10.455l0.002-0.002c-2.561 2.633-6.139 4.267-10.097 4.267-0.050 0-0.1 0-0.15-0.001h0.008zM910.507 630.613h-501.76c-0.042 0-0.092 0.001-0.143 0.001-3.959 0-7.536-1.634-10.094-4.264l-0.003-0.003c-2.639-2.627-4.272-6.263-4.272-10.281 0-0.136 0.002-0.271 0.006-0.406v0.020-90.453c-0.003-0.115-0.005-0.25-0.005-0.386 0-4.017 1.633-7.653 4.271-10.28l0.001-0.001c2.561-2.633 6.139-4.267 10.097-4.267 0.050 0 0.1 0 0.15 0.001h502.179c4.002 0.010 7.621 1.639 10.24 4.266v0c2.639 2.627 4.272 6.263 4.272 10.281 0 0.136-0.002 0.271-0.006 0.406v-0.020 90.027c0.001 0.064 0.002 0.139 0.002 0.214 0 4.071-1.629 7.761-4.271 10.455l0.002-0.002c-2.534 2.825-6.17 4.617-10.227 4.693h-0.013zM920.747 806.827c-2.619 2.628-6.238 4.257-10.238 4.267h-797.442c-0.042 0-0.092 0.001-0.143 0.001-3.959 0-7.536-1.634-10.094-4.264l-0.003-0.003c-2.639-2.627-4.272-6.263-4.272-10.281 0-0.136 0.002-0.271 0.006-0.406v0.020-90.453c-0.003-0.115-0.005-0.25-0.005-0.386 0-4.017 1.633-7.653 4.271-10.28l0.001-0.001c2.561-2.633 6.139-4.267 10.097-4.267 0.050 0 0.1 0 0.15 0.001h797.859c0.042 0 0.092-0.001 0.143-0.001 3.959 0 7.536 1.634 10.094 4.264l0.003 0.003c2.639 2.627 4.272 6.263 4.272 10.281 0 0.136-0.002 0.271-0.006 0.406v-0.020 90.027c0.001 0.064 0.002 0.139 0.002 0.214 0 4.071-1.629 7.761-4.271 10.455l0.002-0.002z" />
<glyph unicode="&#xe950;" glyph-name="send-message" data-tags="send message" d="M161.707 148.48l773.547 331.52-773.547 331.52v-256l554.667-73.813-554.667-73.813z" />
<glyph unicode="&#xe951;" glyph-name="share-screen" data-tags="share screen" d="M783.787 311.893h-565.333v353.707h336.213v77.227h-357.547c-0.258 0.004-0.562 0.007-0.867 0.007-31.364 0-56.873-25.067-57.585-56.26l-0.001-0.066v-395.52c0.713-31.259 26.222-56.327 57.586-56.327 0.305 0 0.609 0.002 0.913 0.007l-0.046-0.001h164.267v-53.333c-0.015-0.289-0.023-0.627-0.023-0.967 0-11.311 9.169-20.48 20.48-20.48 0.76 0 1.509 0.041 2.247 0.122l-0.091-0.008h237.653c10.366 1.106 18.369 9.804 18.369 20.371 0 0.338-0.008 0.675-0.024 1.010l0.002-0.047v52.907h164.267c0.258-0.004 0.562-0.007 0.867-0.007 31.364 0 56.873 25.067 57.585 56.26l0.001 0.066v160.427h-78.933zM439.467 432.213c67.84 87.467 162.56 128 298.667 128v-102.4l189.44 174.933-189.44 174.933v-100.693c-151.575-12.837-273.221-126.336-298.388-272.813l-0.279-1.96z" />
<glyph unicode="&#xe952;" glyph-name="add-content" data-tags="add content" d="M110.080 805.12h89.173v-650.667h-89.173v650.667zM263.253 805.12v-650.667h650.667v650.667zM810.667 442.88h-184.747v-186.027h-74.24v186.027h-186.453v74.24h186.027v186.453h74.667v-186.027h184.747z" />
<glyph unicode="&#xe953;" glyph-name="add-members" data-tags="add members" d="M512 888.747c-225.745 0-408.747-183.002-408.747-408.747s183.002-408.747 408.747-408.747c225.745 0 408.747 183.002 408.747 408.747v0c0 225.745-183.002 408.747-408.747 408.747v0zM761.6 437.333h-206.933v-208.213h-85.333v208.213h-206.933v85.333h206.933v206.933h85.333v-206.933h208.213z" />
<glyph unicode="&#xe954;" glyph-name="attach" data-tags="attach" d="M768 876.8l-4.693 2.56c-30.719 16.288-67.157 25.851-105.829 25.851-83.052 0-155.802-44.107-196.105-110.174l-0.573-1.010-284.587-475.733c-18.781-30.237-29.914-66.925-29.914-106.214 0-12.372 1.104-24.486 3.219-36.249l-0.184 1.236c11.993-43.874 40.627-79.605 78.527-100.695l0.833-0.425c24.43-13.777 53.637-21.894 84.739-21.894 16.301 0 32.080 2.23 47.051 6.4l-1.23-0.293c45.087 11.835 82.198 40.050 105.38 77.75l0.433 0.757 247.040 411.733c10.569 17.038 16.834 37.707 16.834 59.839 0 43.111-23.769 80.671-58.918 100.289l-0.582 0.299c-17.428 9.853-38.27 15.658-60.469 15.658-44.243 0-83.099-23.061-105.204-57.819l-0.301-0.506-189.867-316.16c-3.151-5.111-5.018-11.305-5.018-17.935 0-3.181 0.43-6.262 1.235-9.188l-0.057 0.243c4.464-14.806 17.979-25.405 33.97-25.405 3.089 0 6.087 0.396 8.943 1.139l-0.246-0.054c9.474 2.536 17.258 8.513 22.095 16.477l0.092 0.163 189.44 315.733c9.319 14.416 25.311 23.822 43.5 23.822 9.082 0 17.617-2.345 25.031-6.463l-0.264 0.134c14.525-8.058 24.194-23.302 24.194-40.805 0-8.886-2.492-17.191-6.816-24.252l0.116 0.203-247.040-411.733c-13.645-22.511-35.201-39.065-60.73-45.918l-0.71-0.162c-7.473-1.969-16.052-3.099-24.895-3.099-18.807 0-36.42 5.113-51.525 14.024l0.474-0.259c-22.453 12.422-39.071 33.074-45.923 57.788l-0.157 0.666c-0.604 4.867-0.948 10.501-0.948 16.215 0 26.651 7.496 51.552 20.494 72.709l-0.345-0.604 286.293 475.733c27.753 44.902 76.711 74.373 132.552 74.373 26.591 0 51.621-6.683 73.502-18.46l-0.827 0.407 4.693-2.56c43.078-25.267 71.545-71.346 71.545-124.075 0-27.472-7.727-53.14-21.127-74.947l0.356 0.623-236.8-395.093c-3.171-5.084-5.051-11.257-5.051-17.869 0-3.206 0.442-6.309 1.269-9.251l-0.058 0.24c4.464-14.806 17.979-25.405 33.97-25.405 3.089 0 6.087 0.396 8.943 1.139l-0.246-0.054c9.474 2.536 17.258 8.513 22.095 16.477l0.092 0.163 237.227 395.093c18.764 31.118 29.865 68.693 29.865 108.86 0 79.41-43.388 148.686-107.75 185.415l-1.049 0.551z" />
<glyph unicode="&#xe955;" glyph-name="hint-on" data-tags="hint on" d="M594.42 130.494h-164.842c-13.396 0-24.257-10.861-24.257-24.257s10.861-24.257 24.257-24.257v0h164.842c13.396 0 24.257 10.861 24.257 24.257s-10.861 24.257-24.257 24.257v0zM594.42 62.158h-164.842c-13.396 0-24.257-10.861-24.257-24.257s10.861-24.257 24.257-24.257v0h164.842c13.396 0 24.257 10.861 24.257 24.257s-10.861 24.257-24.257 24.257v0zM512 735.087c-0.779 0.009-1.701 0.015-2.623 0.015-133.918 0-242.652-107.828-244.118-241.4l-0.001-0.139c0.458-84.791 44.919-159.098 111.692-201.298l0.984-0.581c6.013-4.242 10.003-11.005 10.43-18.716l0.002-0.064v-69.38c0.293-26.857 22.133-48.516 49.032-48.516 0.185 0 0.368 0.001 0.553 0.002h148.12c0.156-0.001 0.34-0.002 0.525-0.002 26.899 0 48.74 21.659 49.032 48.489v67.843c0.51 7.754 4.476 14.487 10.359 18.729l0.073 0.050c67.757 42.781 112.218 117.088 112.676 201.811v0.067c-0.584 134.388-109.662 243.103-244.13 243.103-0.918 0-1.835-0.005-2.75-0.015l0.139 0.001zM516.173 818.029c12.52 0 45.384 9.39 45.384 20.866v140.846c0 11.477-32.864 20.866-45.384 20.866s-45.384-9.39-45.384-20.866v-140.846c-0.522-11.477 32.864-21.387 44.862-21.387zM307.513 769.516c8.868 8.347 25.039 36.516 16.172 44.341l-107.982 99.635c-8.868 8.347-39.646-6.782-48.513-14.607s-25.039-36.516-16.172-44.341l107.982-100.157c8.868-8.347 39.646 6.782 48.513 14.607zM755.089 750.737l111.112 104.33c8.868 8.347-7.303 37.559-16.692 45.906s-40.689 23.474-52.165 15.127l-111.112-104.33c-8.868-8.347 7.303-37.559 16.692-45.906s43.297-25.039 52.165-15.127zM1000.787 669.881h-156.495c-13.042 0-23.474-31.299-23.474-43.297s10.433-43.297 23.474-43.297h156.495c13.042 0 23.474 31.299 23.474 43.297s-10.955 42.776-23.474 42.776zM180.23 669.881h-156.495c-13.042 0-23.474-31.299-23.474-43.297s10.433-43.297 23.474-43.297h156.495c13.042 0 23.474 31.299 23.474 43.297s-10.433 42.776-23.474 42.776z" />
<glyph unicode="&#xe956;" glyph-name="file" data-tags="file" d="M833.707 695.893l-175.36 174.080c-19.715 18.956-45.147 32.098-73.459 36.591l-0.781 0.102v-284.16h286.293c-4.628 28.809-17.769 53.957-36.722 73.416l0.029-0.030zM565.76 551.253c-0.26-0.005-0.566-0.007-0.873-0.007-14.701 0-27.99 6.045-37.518 15.784l-0.009 0.010c-9.488 9.301-15.369 22.25-15.369 36.573 0 0.342 0.003 0.684 0.010 1.024l-0.001-0.051v302.080h-305.92c-0.312 0.007-0.681 0.011-1.050 0.011-14.646 0-27.88-6.049-37.338-15.785l-0.012-0.012c-9.742-9.337-15.796-22.455-15.796-36.987 0-0.347 0.003-0.693 0.010-1.038l-0.001 0.052v-747.093c-0.006-0.294-0.010-0.64-0.010-0.987 0-14.532 6.054-27.65 15.778-36.969l0.018-0.017c9.497-9.5 22.619-15.376 37.114-15.376 0.452 0 0.903 0.006 1.353 0.017l-0.067-0.001h611.84c0.383-0.010 0.834-0.016 1.286-0.016 14.494 0 27.616 5.876 37.114 15.376v0c9.743 9.404 15.793 22.578 15.793 37.165 0 0.284-0.002 0.568-0.007 0.851l0.001-0.043v445.44z" />
<glyph unicode="&#xe957;" glyph-name="filter" data-tags="filter" d="M421.973 501.76c7.685-8.736 12.375-20.27 12.375-32.899 0-0.134-0.001-0.268-0.002-0.401v0.021-360.533c-0.036-0.484-0.057-1.048-0.057-1.617 0-12.725 10.315-23.040 23.040-23.040 6.566 0 12.491 2.747 16.688 7.154l0.009 0.009 96 115.2c12.8 16.213 20.053 24.32 20.053 40.107v222.72c0 0.066 0 0.144 0 0.222 0 12.68 4.688 24.265 12.424 33.117l-0.050-0.059 275.2 313.173c5.73 6.5 9.227 15.088 9.227 24.492 0 19.243-14.642 35.065-33.392 36.935l-0.155 0.012h-682.667c-19.625-0.809-35.228-16.914-35.228-36.664 0-9.563 3.658-18.272 9.652-24.803l-0.024 0.027z" />
<glyph unicode="&#xe958;" glyph-name="collapse" data-tags="collapse" d="M507.712 689.26c1.008-1.283 2.549-2.11 4.282-2.144h0.006c1.74 0.034 3.28 0.86 4.279 2.132l0.009 0.012 105.488 145.367c0.709 1.019 1.133 2.282 1.133 3.645s-0.423 2.626-1.147 3.666l0.014-0.021c-0.894 0.639-2.011 1.021-3.216 1.021s-2.322-0.383-3.233-1.033l0.017 0.011-69.897-29.159v173.239c0 0.005 0 0.010 0 0.015 0 3.165-2.448 5.758-5.555 5.987l-0.020 0.001h-55.746c-3.126-0.23-5.575-2.823-5.575-5.988 0-0.005 0-0.011 0-0.016v0.001-171.525l-69.467 29.159c-0.872 0.704-1.995 1.129-3.216 1.129s-2.344-0.425-3.226-1.137l0.010 0.008c-0.77-0.999-1.233-2.267-1.233-3.645s0.463-2.646 1.243-3.659l-0.010 0.014zM516.288 269.454c-1.008 1.283-2.549 2.11-4.282 2.144h-0.006c-1.74-0.034-3.28-0.86-4.279-2.132l-0.009-0.012-105.058-145.796c-0.709-1.019-1.133-2.282-1.133-3.645s0.423-2.626 1.147-3.666l-0.014 0.021c0.894-0.639 2.011-1.021 3.216-1.021s2.322 0.383 3.233 1.033l-0.017-0.011 69.467 29.159v-171.525c0-0.005 0-0.010 0-0.015 0-3.165 2.448-5.758 5.555-5.987l0.020-0.001h55.746c0.005 0 0.011 0 0.016 0 3.078 0 5.575 2.495 5.575 5.575 0 0.151-0.006 0.301-0.018 0.448l0.001-0.019v171.525l69.467-29.159c0.894-0.639 2.011-1.021 3.216-1.021s2.322 0.383 3.233 1.033l-0.017-0.011c0.148 0.515 0.233 1.105 0.233 1.716s-0.085 1.201-0.244 1.761l0.011-0.045c0.159 0.514 0.25 1.104 0.25 1.716s-0.091 1.202-0.261 1.758l0.011-0.042zM290.304 603.927v-55.317h443.392v55.317zM290.304 354.359h443.392v55.317h-443.392z" />
<glyph unicode="&#xe959;" glyph-name="expand" data-tags="expand" d="M408.489 834.165l69.721 30.797v-171.094c0-0.005 0-0.010 0-0.015 0-3.157 2.442-5.743 5.541-5.972l0.020-0.001h55.606c3.118 0.23 5.561 2.816 5.561 5.973 0 0.005 0 0.011 0 0.016v-0.001 171.094l69.721-29.086c0.87-0.702 1.99-1.126 3.208-1.126s2.338 0.424 3.218 1.134l-0.010-0.008c0.768 0.996 1.23 2.262 1.23 3.636s-0.462 2.64-1.24 3.65l0.010-0.014-104.795 145.43c-1.006 1.28-2.542 2.104-4.272 2.138h-0.006c-1.735-0.034-3.272-0.858-4.269-2.126l-0.009-0.012-105.651-145.002c-0.707-1.017-1.13-2.277-1.13-3.636s0.422-2.62 1.144-3.657l-0.014 0.021c1.014-1.482 2.697-2.442 4.603-2.442 0.649 0 1.272 0.111 1.851 0.316l-0.039-0.012zM614.228 123.697l-68.865-28.659v171.094c0 0.005 0 0.010 0 0.015 0 3.157-2.442 5.743-5.541 5.972l-0.020 0.001h-55.606c-0.005 0-0.011 0-0.016 0-3.071 0-5.561-2.489-5.561-5.561 0-0.15 0.006-0.3 0.018-0.447l-0.001 0.019v-171.094l-69.293 29.086c-0.87 0.702-1.99 1.126-3.208 1.126s-2.338-0.424-3.218-1.134l0.010 0.008c-0.147-0.513-0.233-1.102-0.233-1.711s0.085-1.198 0.244-1.756l-0.011 0.045c-0.158-0.512-0.25-1.101-0.25-1.711s0.091-1.199 0.261-1.753l-0.011 0.042 104.368-145.002c0-0.020 0-0.043 0-0.066 0-2.769 2.024-5.066 4.674-5.491l0.032-0.004c1.735 0.034 3.272 0.858 4.269 2.126l0.009 0.012 104.795 145.002c0.707 1.017 1.13 2.277 1.13 3.636s-0.422 2.62-1.144 3.657l0.014-0.021c-0.891 1.952-2.827 3.283-5.073 3.283-0.634 0-1.242-0.106-1.81-0.301l0.039 0.012zM290.861 603.616v-55.178h442.278v55.178zM290.861 355.101h442.278v55.178h-442.278z" />
<glyph unicode="&#xe95a;" glyph-name="upload" data-tags="ic_upload_big" horiz-adv-x="979" d="M556.505 346.435c0-36.864-29.913-66.783-66.783-66.783s-66.783 29.919-66.783 66.783v417.568l-41.848-41.848c-26.043-26.047-68.369-26.047-94.413 0-26.065 26.089-26.065 68.383 0 94.476l154.804 154.796c0.326 0.345 0.674 0.69 1.022 1.030 0.043 0.049 0.109 0.068 0.152 0.117 12.065 12.005 28.696 19.427 47.065 19.427 16.131 0 30.935-5.726 42.479-15.255 0.217-0.174 0.413-0.348 0.63-0.524 1.434-1.201 2.826-2.446 4.13-3.764 0.478-0.481 0.956-0.967 1.413-1.462l154.369-154.41c26.086-26.046 26.086-68.386 0-94.429-26.043-26.047-68.391-26.047-94.435 0l-41.805 41.804v-417.524zM979.478 212.87c0 36.864-29.914 66.783-66.783 66.783s-66.783-29.918-66.783-66.783v-111.304h-712.348v111.304c0 36.864-29.913 66.783-66.783 66.783s-66.783-29.918-66.783-66.783v-178.087c0-36.864 29.913-66.783 66.783-66.783h845.913c36.868 0 66.783 29.919 66.783 66.783v178.087z" />
<glyph unicode="&#xe95b;" glyph-name="chat" data-tags="chat" d="M402.927 854c-143.516 0-263.927-124.97-263.927-284.314 0-121.617 70.637-223.983 167.994-264.947l22.65-9.532v-128.845l173.008 119.010h117.423c143.514 0 263.927 124.971 263.927 284.314 0 159.345-120.414 284.314-263.927 284.314h-217.148zM65 569.685c0 195.569 149.047 358.315 337.927 358.315h217.148c188.877 0 337.924-162.745 337.924-358.315 0-195.571-149.047-358.315-337.924-358.315h-94.426l-270.005-185.732v221.457c-113.629 58.389-190.644 181.606-190.644 322.59z" />
<glyph unicode="&#xe95c;" glyph-name="notifications" data-tags="notifications" d="M672.943 902.781c39.987 28.002 94.182 32.079 139.209 6.083s68.591-74.969 64.333-123.6c100.143-114.26 121.809-283.85 41.609-422.764l-45.551-78.895c38.135-49.011 45.086-118.178 12.105-175.305-43.469-75.29-139.721-100.962-214.933-57.536l-529.48 305.694c-75.214 43.426-101.108 139.618-57.641 214.906 32.983 57.129 96.358 85.689 157.872 77.172l45.55 78.895c80.2 138.911 237.902 204.944 386.928 175.348zM696.602 819.889c-129.084 44.601-275.732-6.881-346.501-129.457l-76.787-133.001-12.785 7.381c-39.876 23.024-90.848 9.392-113.849-30.447s-9.321-90.799 30.554-113.822l529.48-305.694c39.872-23.023 90.846-9.391 113.847 30.451 23.002 39.838 9.323 90.795-30.554 113.818l-12.787 7.381 76.787 133.001c70.771 122.577 42.031 275.319-61.137 364.808l2.65 4.589c15.334 26.56 6.212 60.532-20.369 75.881-26.586 15.348-60.565 6.26-75.9-20.3l-2.65-4.589zM193.965 328c-25.385-72.107 3.289-154.321 71.895-193.929 68.607-39.612 154.143-23.334 203.895 34.701l-66.228 38.238c-27.538-23.164-67.701-27.887-100.667-8.853s-48.959 56.175-42.667 91.605l-66.228 38.238z" />
<glyph unicode="&#xe95d;" glyph-name="connect" data-tags="connect" d="M180 200c-28.166 0-51 22.835-51 51.002s22.834 51.002 51 51.002c28.166 0 51-22.835 51-51.002s-22.834-51.002-51-51.002zM180 126.003c69.036 0 125 55.962 125 124.998s-55.964 124.998-125 124.998c-69.036 0-125-55.962-125-124.998s55.964-124.998 125-124.998zM844.998 200c-28.166 0-51.002 22.835-51.002 51.002s22.835 51.002 51.002 51.002c28.166 0 51.002-22.835 51.002-51.002s-22.835-51.002-51.002-51.002zM844.998 126.003c69.037 0 124.998 55.962 124.998 124.998s-55.962 124.998-124.998 124.998c-69.037 0-124.998-55.962-124.998-124.998s55.962-124.998 124.998-124.998zM509 773c-28.166 0-51 22.834-51 51s22.833 51 51 51c28.167 0 51-22.834 51-51s-22.833-51-51-51zM509 699c69.036 0 125 55.964 125 125s-55.964 125-125 125c-69.036 0-125-55.964-125-125s55.964-125 125-125zM669.722 752.167c9.818 21.935 15.277 46.246 15.277 71.834 0 0.98-0.006 1.96-0.019 2.937 146.24-65.989 248.019-213.076 248.019-383.937 0-12.996-0.589-25.855-1.741-38.551-21.766 12.26-46.4 20.025-72.646 22.033 0.256 5.474 0.39 10.981 0.39 16.518 0 134.849-76.922 251.733-189.28 309.167zM349.433 749.642c-10.544 22.588-16.433 47.786-16.433 74.358 0 0.054 0.001 0.108 0.001 0.161-143.005-67.274-242-212.657-242-381.162 0-13.18 0.605-26.22 1.791-39.091 21.722 12.415 46.344 20.335 72.599 22.493-0.259 5.5-0.39 11.034-0.39 16.598 0 132.902 74.716 248.353 184.433 306.642zM324.728 150.822c-14.566-21.005-33.588-38.688-55.698-51.674 68.642-48.595 152.472-77.146 242.97-77.146 90.699 0 174.701 28.678 243.424 77.466-22.035 13.050-40.973 30.771-55.462 51.802-54.163-34.976-118.692-55.27-187.962-55.27-68.975 0-133.249 20.128-187.272 54.822z" />
<glyph unicode="&#xe95e;" glyph-name="library" data-tags="library" d="M726.003 929h-595.003v-132.446c-37.551-16.833-66.001-51.18-66.001-95.967v-560.171c0-64.557 59.097-107.418 119.366-107.418h655.269c60.269 0 119.366 42.861 119.366 107.418v460.028c0 45.58-29.466 80.345-68 96.844v167.712h-82.003v29h-82.995v35zM808.998 815h32v-107.151c-0.454 0.005-0.909 0.008-1.363 0.008h-30.637v107.143zM759.002 844v-136.143h-32.998v136.143h32.998zM676 707.857h-127.253c-4.244 60.48-61.135 100.143-119.113 100.143h-245.268c-1.123 0-2.244-0.015-3.366-0.044v71.044h495v-171.143zM139 700.587c0 13.224 14.657 33.413 45.366 33.413h245.268c30.709 0 45.366-20.189 45.366-33.413v-66.73h364.635c30.707 0 45.363-20.189 45.363-33.413v-460.028c0-13.229-14.656-33.414-45.363-33.414h-655.269c-30.709 0-45.366 20.186-45.366 33.414v560.171z" />
<glyph unicode="&#xe95f;" glyph-name="community" data-tags="community" d="M833.082 767.415c16.64 16.713 26.918 39.706 26.918 65.085 0 51.087-41.638 92.5-92.998 92.5-51.366 0-93.005-41.413-93.005-92.5 0-25.586 10.445-48.746 27.328-65.491-37.344-25.746-62.324-72.623-62.324-126.182 0-81.282 57.531-94.826 128.5-94.826s128.499 13.544 128.499 94.826c0 53.842-25.242 100.931-62.918 126.589zM809.997 832.5c0-23.218-18.995-42.5-42.995-42.5-24.006 0-43.002 19.282-43.002 42.5s18.995 42.5 43.002 42.5c24 0 42.995-19.282 42.995-42.5zM846.003 640.826c0-14.548-2.586-22.367-4.608-26.321-1.773-3.47-4.115-5.991-8.198-8.369-10.758-6.268-30.88-10.136-65.696-10.136s-54.938 3.868-65.696 10.136c-4.083 2.378-6.426 4.899-8.198 8.369-2.029 3.953-4.608 11.772-4.608 26.321 0 60.255 41.306 97.174 78.502 97.174s78.502-36.919 78.502-97.174zM310.083 767.415c16.64 16.713 26.916 39.706 26.916 65.085 0 51.087-41.637 92.5-93 92.5s-93-41.413-93-92.5c0-25.586 10.444-48.746 27.324-65.491-37.344-25.746-62.324-72.623-62.324-126.182 0-81.282 57.532-94.826 128.5-94.826s128.5 13.544 128.5 94.826c0 53.842-25.244 100.931-62.916 126.589zM287 832.5c0-23.218-18.998-42.5-43-42.5s-43 19.282-43 42.5c0 23.219 18.998 42.5 43 42.5s43-19.282 43-42.5zM323 640.826c0-14.548-2.58-22.367-4.604-26.321-1.777-3.47-4.118-5.991-8.201-8.369-10.76-6.268-30.881-10.136-65.695-10.136s-54.936 3.868-65.695 10.136c-4.083 2.378-6.424 4.899-8.201 8.369-2.024 3.953-4.604 11.772-4.604 26.321 0 60.255 41.302 97.174 78.5 97.174s78.5-36.919 78.5-97.174zM604.080 366.81c24.688 25.268 39.92 59.938 39.92 98.19 0 77.32-62.232 140-139 140s-139-62.68-139-140c0-38.46 15.398-73.298 40.323-98.602-55.921-38.731-93.324-109.227-93.324-189.764 0-122.259 86.186-142.637 192.5-142.637s192.503 20.378 192.503 142.637c0 80.826-37.67 151.533-93.923 190.176zM570 465c0-36.952-29.601-65.999-65-65.999s-65 29.048-65 65.999c0 36.952 29.601 66.001 65 66.001s65-29.048 65-66.001zM624 176.634c0-22.067-3.898-34.067-7.051-40.25-2.785-5.459-6.456-9.389-12.692-13.037-16.305-9.542-46.607-15.347-98.756-15.347s-82.452 5.805-98.757 15.347c-6.237 3.648-9.907 7.578-12.692 13.037-3.154 6.182-7.051 18.182-7.051 40.25 0 91.437 62.425 147.366 118.5 147.366s118.5-55.93 118.5-147.366zM920.083 595.581c-4.998-32.787-19.494-55.231-40.512-70.244 12.659-21.329 18.426-42.532 18.426-62.337 0-44.469-29.101-95.984-99.898-140.159-20.525-12.806-43.757-24.384-69.261-34.349 7.731-23.187 12.698-47.904 14.451-73.632 136.781 49.741 228.71 142.242 228.71 248.14 0 47.828-18.752 92.924-51.917 132.58zM639.594 738.815c-40.514 7.283-83.324 11.185-127.594 11.185-48.144 0-94.56-4.614-138.175-13.173 14.171-20.15 24.678-43.818 30.363-69.677 34.010 5.724 70.141 8.85 107.812 8.85 33.422 0 65.633-2.46 96.225-7.013 5.969 25.996 16.822 49.726 31.369 69.828zM94.318 583.406c7.434-30.325 24.082-50.579 46.918-63.718-10.438-19.416-15.236-38.633-15.236-56.688 0-44.469 29.101-95.984 99.901-140.159 17.181-10.72 36.258-20.576 56.978-29.35-8.172-23.091-13.584-47.757-15.777-73.485-129.237 50.81-215.103 140.647-215.103 242.994 0 42.999 15.156 83.79 42.318 120.406z" />
<glyph unicode="&#xe960;" glyph-name="during-call" data-tags="during-call" d="M624.132 434.56c48.427 48.427 126.938 48.427 175.364 0l124.032-124.032c48.427-48.427 48.427-126.938 0-175.364l-76.109-76.105c-9.404-9.408-20.71-15.753-32.678-19.042-38.11-11.665-78.507-5.611-112.038 4.117-36.715 10.645-76.13 28.932-115.998 52.049-79.974 46.374-169.904 116.954-256.129 203.179s-156.807 176.154-203.182 256.132c-23.118 39.866-41.402 79.281-52.050 115.995-9.726 33.537-15.782 73.935-4.111 112.049 3.288 11.966 9.633 23.268 19.035 32.67l76.108 76.108c48.425 48.425 126.938 48.425 175.363 0l124.035-124.034c48.422-48.425 48.422-126.938 0-175.363l-16.678-16.676c0.849-3.302 2.082-7.328 3.844-12.058 9.028-24.243 27.981-56.115 57.161-85.295s61.052-48.137 85.295-57.165c4.732-1.762 8.759-2.991 12.062-3.84l16.674 16.674zM617.771 416.090c0.589 0.047 0.913 0.038 0.93 0.026 0.017-0.017-0.277-0.043-0.93-0.026zM447.326 587.488c0.017-0.016 0.021-0.342-0.026-0.932-0.013 0.653 0.009 0.948 0.026 0.932zM644.732 350.507l-0.090-0.085c-23.667-23.671-114.236 3.516-186.867 76.143-72.627 72.627-99.811 163.197-76.142 186.867l31.815 31.815c19.525 19.526 19.525 51.184 0 70.711l-124.034 124.034c-19.526 19.526-51.184 19.526-70.711 0l-76.108-76.108c-0.018-0.018-0.018-0.047 0-0.066 0.013-0.012 0.017-0.030 0.012-0.047-24.828-72.399 74.873-246.659 240.295-412.082 165.42-165.423 339.68-265.122 412.081-240.294 0.017 0.009 0.034 0 0.047-0.013 0.017-0.017 0.047-0.017 0.068 0l76.105 76.109c19.529 19.529 19.529 51.183 0 70.711l-124.032 124.032c-19.529 19.529-51.187 19.529-70.711 0l-31.727-31.727zM625.984 751.213c42.914-1.674 83.806-18.114 114.957-49.263 31.147-31.149 47.586-72.043 49.263-114.954 0.538-13.797 12.156-24.543 25.954-24.005s24.546 12.157 24.004 25.954c-2.125 54.518-23.155 107.648-63.868 148.36s-93.841 61.743-148.361 63.869c-13.794 0.538-25.417-10.21-25.954-24.006s10.21-25.417 24.004-25.955zM818.978 787.975c-61.001 61.003-144.772 90.125-235.311 87.714-13.803-0.368-25.293 10.523-25.66 24.326s10.526 25.289 24.329 25.657c102.118 2.719 199.876-30.22 272-102.341 72.119-72.122 105.058-169.881 102.34-272-0.367-13.803-11.857-24.691-25.66-24.324-13.798 0.367-24.691 11.853-24.324 25.655 2.411 90.54-26.709 174.311-87.714 235.314zM688.623 612.37c13.188 13.186 13.188 34.564 0 47.75-13.184 13.186-34.564 13.186-47.748 0s-13.184-34.564 0-47.75c13.184-13.186 34.564-13.186 47.748 0z" />
</font>
</defs>
</svg>
